<?xml version="1.0" encoding="UTF-8"?>
<svg version="1.1" xmlns="http://www.w3.org/2000/svg" width="851" height="103">
<path d="M0 0 C280.83 0 561.66 0 851 0 C851 33.99 851 67.98 851 103 C570.17 103 289.34 103 0 103 C0 69.01 0 35.02 0 0 Z " fill="#F3F3F3" transform="translate(0,0)"/>
<path d="M0 0 C279.84 0 559.68 0 848 0 C848 10.23 848 20.46 848 31 C568.16 31 288.32 31 0 31 C0 20.77 0 10.54 0 0 Z " fill="#E6ECE5" transform="translate(1,71)"/>
<path d="M0 0 C279.84 0 559.68 0 848 0 C848 0.99 848 1.98 848 3 C568.16 3 288.32 3 0 3 C0 2.01 0 1.02 0 0 Z " fill="#688D8E" transform="translate(1,99)"/>
<path d="M0 0 C7.87567369 4.2191109 12.62543426 9.26402209 15.5 17.875 C17.01019528 26.52550452 14.02859269 33.00774059 9.375 40.125 C3.25497054 45.97894123 -2.51672335 48.19151721 -11 48.5 C-18.75383822 48.21050251 -24.56660331 46.47363952 -30.3359375 41.1953125 C-31.88387991 39.49635132 -33.20352536 37.77050582 -34.5 35.875 C-35.11875 35.00875 -35.7375 34.1425 -36.375 33.25 C-38.55919554 26.69741339 -38.82126766 18.9199513 -36 12.5 C-28.4237314 -0.20771293 -13.87613473 -4.57096203 0 0 Z " fill="#198A47" transform="translate(490.5,12.125)"/>
<path d="M0 0 C7.02427048 1.54191303 10.82255106 6.04990789 14.9375 11.625 C16.9421574 17.99273528 17.26651193 24.56696401 14.93359375 30.890625 C11.17815096 37.72614484 6.34581057 41.55139648 -1 44 C-9.85476112 44.79401377 -17.47338643 45.14180291 -25.0078125 39.7890625 C-28.80112213 36.38252169 -31.36921417 32.89235748 -33 28 C-33.06937062 25.77181559 -33.08457084 23.54165476 -33.0625 21.3125 C-33.05347656 20.13300781 -33.04445313 18.95351563 -33.03515625 17.73828125 C-33.02355469 16.83464844 -33.01195312 15.93101563 -33 15 C-31.35 15 -29.7 15 -28 15 C-28 14.67 -28 14.34 -28 14 C-28.99 13.67 -29.98 13.34 -31 13 C-30.42429187 9.11397015 -28.58424279 6.88827136 -26 4 C-23 2 -23 2 -20 2 C-20 2.99 -20 3.98 -20 5 C-22.5 6.6875 -22.5 6.6875 -25 8 C-24.2575 7.649375 -23.515 7.29875 -22.75 6.9375 C-19.78877125 5.9279902 -18.87937439 6.12019116 -16 7 C-16.48210937 7.38671875 -16.96421875 7.7734375 -17.4609375 8.171875 C-18.09257812 8.69265625 -18.72421875 9.2134375 -19.375 9.75 C-20.00148438 10.26046875 -20.62796875 10.7709375 -21.2734375 11.296875 C-24.36237003 14.34387632 -24.96322634 16.54400664 -25.3125 20.875 C-25.15598151 26.13793426 -23.46431373 29.61275542 -19.625 33.25 C-14.60352171 36.59765219 -11.22448166 37.39692484 -5.28125 36.53515625 C-0.44017823 35.39949386 2.92516878 33.45622295 5.9375 29.375 C7.67994932 23.84016099 8.00938724 18.49690527 5.8125 13.0625 C3.77412011 10.74296426 1.65671336 9.53809721 -1 8 C-1.33 7.01 -1.66 6.02 -2 5 C-1.01 4.34 -0.02 3.68 1 3 C0.505 1.515 0.505 1.515 0 0 Z " fill="#E0F0E5" transform="translate(488,14)"/>
<path d="M0 0 C7.87567369 4.2191109 12.62543426 9.26402209 15.5 17.875 C17.01019528 26.52550452 14.02859269 33.00774059 9.375 40.125 C3.25497054 45.97894123 -2.51672335 48.19151721 -11 48.5 C-18.75383822 48.21050251 -24.56660331 46.47363952 -30.3359375 41.1953125 C-31.88387991 39.49635132 -33.20352536 37.77050582 -34.5 35.875 C-35.11875 35.00875 -35.7375 34.1425 -36.375 33.25 C-38.55919554 26.69741339 -38.82126766 18.9199513 -36 12.5 C-28.4237314 -0.20771293 -13.87613473 -4.57096203 0 0 Z M-2.5 1.875 C-2.005 3.36 -2.005 3.36 -1.5 4.875 C-4.05478427 7.47747358 -5.97047321 8.08903976 -9.50390625 8.1328125 C-11.02380369 8.1037109 -12.54346805 8.05896664 -14.0625 8 C-19.85695574 7.73874017 -19.85695574 7.73874017 -25.5 8.875 C-24.51 8.215 -23.52 7.555 -22.5 6.875 C-22.5 5.885 -22.5 4.895 -22.5 3.875 C-26.38602985 4.45070813 -28.61172864 6.29075721 -31.5 8.875 C-33.80671915 11.59049154 -33.80671915 11.59049154 -33.125 14.0625 C-32.815625 14.9596875 -32.815625 14.9596875 -32.5 15.875 C-31.84 15.875 -31.18 15.875 -30.5 15.875 C-30.5 16.205 -30.5 16.535 -30.5 16.875 C-32.15 16.875 -33.8 16.875 -35.5 16.875 C-36.25028003 28.09451794 -36.25028003 28.09451794 -31.5 37.875 C-28.99702712 40.16768213 -26.39187254 42.1014688 -23.5 43.875 C-22.91734375 44.25140625 -22.3346875 44.6278125 -21.734375 45.015625 C-15.82287949 47.28927712 -6.86646053 46.79222415 -0.84765625 45.15234375 C4.96499599 42.39663338 9.72907378 37.77715485 12.765625 32.08984375 C14.62378094 26.48572452 14.65268245 20.01682472 12.6171875 14.46875 C9.69339783 9.43441017 5.00860082 3.92077344 -0.71484375 2.21484375 C-1.30394531 2.10269531 -1.89304687 1.99054687 -2.5 1.875 Z " fill="#C5E5D3" transform="translate(490.5,12.125)"/>
<path d="M0 0 C7.02427048 1.54191303 10.82255106 6.04990789 14.9375 11.625 C16.9421574 17.99273528 17.26651193 24.56696401 14.93359375 30.890625 C11.17815096 37.72614484 6.34581057 41.55139648 -1 44 C-3.22818441 44.06937062 -5.45834524 44.08457084 -7.6875 44.0625 C-9.45673828 44.04896484 -9.45673828 44.04896484 -11.26171875 44.03515625 C-12.16535156 44.02355469 -13.06898438 44.01195312 -14 44 C-14 43.67 -14 43.34 -14 43 C-13.29875 42.97421875 -12.5975 42.9484375 -11.875 42.921875 C-5.20387098 42.5230575 -0.80586802 41.27239834 5 38 C5.66 38 6.32 38 7 38 C7 37.34 7 36.68 7 36 C7.66 36 8.32 36 9 36 C10.52299523 33.06279492 11.80100302 30.0831351 13 27 C12.01 27 11.02 27 10 27 C9.855625 27.61875 9.71125 28.2375 9.5625 28.875 C9 31 9 31 8 33 C7.34 33 6.68 33 6 33 C6.2475 31.576875 6.2475 31.576875 6.5 30.125 C7.29362163 24.3829141 8.01872848 18.52001255 5.8125 13.0625 C3.77412011 10.74296426 1.65671336 9.53809721 -1 8 C-1.33 7.01 -1.66 6.02 -2 5 C-1.01 4.34 -0.02 3.68 1 3 C0.67 2.01 0.34 1.02 0 0 Z " fill="#E8F5ED" transform="translate(488,14)"/>
<path d="M0 0 C1.49080078 0.17982422 1.49080078 0.17982422 3.01171875 0.36328125 C3.77097656 0.47027344 4.53023437 0.57726562 5.3125 0.6875 C5.3125 2.0075 5.3125 3.3275 5.3125 4.6875 C6.6325 4.6875 7.9525 4.6875 9.3125 4.6875 C9.3125 3.3675 9.3125 2.0475 9.3125 0.6875 C10.3025 0.6875 11.2925 0.6875 12.3125 0.6875 C12.3125 4.6475 12.3125 8.6075 12.3125 12.6875 C11.3225 12.6875 10.3325 12.6875 9.3125 12.6875 C9.3125 11.0375 9.3125 9.3875 9.3125 7.6875 C7.9925 7.6875 6.6725 7.6875 5.3125 7.6875 C5.3125 9.3375 5.3125 10.9875 5.3125 12.6875 C3.35483719 12.76832094 1.39623272 12.82660778 -0.5625 12.875 C-1.65304688 12.90980469 -2.74359375 12.94460937 -3.8671875 12.98046875 C-4.79789063 12.88378906 -5.72859375 12.78710938 -6.6875 12.6875 C-9.15074069 8.99263897 -9.07741688 7.05456908 -8.6875 2.6875 C-6.27386111 -0.91675941 -4.06795136 -0.52644076 0 0 Z " fill="#F2F2F2" transform="translate(247.6875,28.3125)"/>
<path d="M0 0 C-0.165 0.495 -0.33 0.99 -0.5 1.5 C-1.83061766 8.01848234 -1.83061766 8.01848234 0.26953125 14.0390625 C2.34048613 16.48792886 4.11202392 18.55601196 7 20 C8.54023996 20.06950541 10.08334988 20.08452357 11.625 20.0625 C12.44226563 20.05347656 13.25953125 20.04445313 14.1015625 20.03515625 C14.72804688 20.02355469 15.35453125 20.01195313 16 20 C13.8024438 23.29633431 13.44734268 23.49293995 9.8125 24.3125 C5.3329275 25.16095835 2.24152468 24.87605899 -2 23 C-7.80013125 17.95640761 -7.80013125 17.95640761 -8.203125 14.01171875 C-8.30089852 9.1637815 -8.20167013 5.91315238 -5 2 C-2 0 -2 0 0 0 Z " fill="#EBF7EF" transform="translate(472,24)"/>
<path d="M0 0 C0.66 0 1.32 0 2 0 C2.495 5.94 2.495 5.94 3 12 C-3.6 12 -10.2 12 -17 12 C-17.66 13.32 -18.32 14.64 -19 16 C-21.45416899 17.10014472 -22.79851277 17.04133071 -25.4375 16.5 C-28.2832481 15.94473208 -30.21591523 16.28409249 -33 17 C-33.66 16.01 -34.32 15.02 -35 14 C-33.02 13.67 -31.04 13.34 -29 13 C-28.67 10.69 -28.34 8.38 -28 6 C-27.34 6.33 -26.68 6.66 -26 7 C-25.375 10.0625 -25.375 10.0625 -25 13 C-23.35 13 -21.7 13 -20 13 C-20.66 12.34 -21.32 11.68 -22 11 C-21.625 8.375 -21.625 8.375 -21 6 C-19.68 6 -18.36 6 -17 6 C-17 6.99 -17 7.98 -17 9 C-15.68 8.67 -14.36 8.34 -13 8 C-13 7.34 -13 6.68 -13 6 C-12.34 6 -11.68 6 -11 6 C-11 6.99 -11 7.98 -11 9 C-7.87802522 7.6910428 -7.87802522 7.6910428 -6 5 C-5.01 5 -4.02 5 -3 5 C-2.505 6.98 -2.505 6.98 -2 9 C-1.01 9 -0.02 9 1 9 C0.505 4.545 0.505 4.545 0 0 Z " fill="#81B67C" transform="translate(758,33)"/>
<path d="M0 0 C3.71599191 -0.20086443 4.77208445 -0.1519437 8 2 C8 1.34 8 0.68 8 0 C10.97 0 13.94 0 17 0 C16.27991594 4.60853797 14.68704061 8.67237409 13 13 C8.38 13 3.76 13 -1 13 C-0.0581664 9.2326656 0.74926371 7.93574299 3 5 C3 4.34 3 3.68 3 3 C1.68 3 0.36 3 -1 3 C-0.67 2.01 -0.34 1.02 0 0 Z " fill="#CCD1CB" transform="translate(570,78)"/>
<path d="M0 0 C-0.51949219 0.24234375 -1.03898437 0.4846875 -1.57421875 0.734375 C-7.04177077 3.36203401 -11.55828099 5.83742148 -15 11 C-15 11.99 -15 12.98 -15 14 C-14.34 14.33 -13.68 14.66 -13 15 C-12.34 13.68 -11.68 12.36 -11 11 C-11.33 12.65 -11.66 14.3 -12 16 C-15 17 -15 17 -18 16 C-17.8806104 27.2369221 -17.8806104 27.2369221 -13 37 C-4.45273017 43.93515132 3.2460946 45.11409354 14 44 C17.19189669 43.02392725 19.16718008 41.85222841 22 40 C23.32572661 39.31833206 24.65745809 38.6479224 26 38 C24.1484429 42.58480806 21.47722484 43.97425268 17.11328125 46.0078125 C9.36343405 48.47765088 0.87472303 48.31397682 -6.5625 44.9375 C-10.99060568 42.33359732 -14.1129225 39.2210407 -17 35 C-17.61875 34.13375 -18.2375 33.2675 -18.875 32.375 C-21.05919554 25.82241339 -21.32126766 18.0449513 -18.5 11.625 C-14.97155439 5.67704884 -7.40729076 -2.64546099 0 0 Z " fill="#6BA282" transform="translate(473,13)"/>
<path d="M0 0 C6.33333333 0 12.66666667 0 19 0 C19 1.98 19 3.96 19 6 C18.01 6.33 17.02 6.66 16 7 C16 7.66 16 8.32 16 9 C10.72 9 5.44 9 0 9 C0 8.34 0 7.68 0 7 C-0.66 7 -1.32 7 -2 7 C-1.34 4.69 -0.68 2.38 0 0 Z " fill="#79B690" transform="translate(474,29)"/>
<path d="M0 0 C2.38564077 0.57584432 4.66682784 1.22227595 7 2 C7 1.34 7 0.68 7 0 C10.3 0 13.6 0 17 0 C17 0.66 17 1.32 17 2 C15.68 2 14.36 2 13 2 C13 5.3 13 8.6 13 12 C12.01 12 11.02 12 10 12 C9.34 11.34 8.68 10.68 8 10 C7.67 10.66 7.34 11.32 7 12 C4.36 11.34 1.72 10.68 -1 10 C-1.33 10.99 -1.66 11.98 -2 13 C-2.66 13 -3.32 13 -4 13 C-3.71517632 11.58194169 -3.42181856 10.16559621 -3.125 8.75 C-2.96257812 7.96109375 -2.80015625 7.1721875 -2.6328125 6.359375 C-2.00849925 4.03168856 -1.15161458 2.10968048 0 0 Z " fill="#222322" transform="translate(287,78)"/>
<path d="M0 0 C0 3.96 0 7.92 0 12 C1.98 11.67 3.96 11.34 6 11 C6 10.01 6 9.02 6 8 C6.66 8 7.32 8 8 8 C8 9.32 8 10.64 8 12 C9.32 12 10.64 12 12 12 C12.33 11.01 12.66 10.02 13 9 C14.32 9 15.64 9 17 9 C17 10.98 17 12.96 17 15 C15.88625 14.9690625 15.88625 14.9690625 14.75 14.9375 C12.29537721 14.99328688 10.33890739 15.3069904 8 16 C8 16.99 8 17.98 8 19 C6.35 19.33 4.7 19.66 3 20 C3 19.01 3 18.02 3 17 C2.01 16.67 1.02 16.34 0 16 C-0.33 15.34 -0.66 14.68 -1 14 C-3.52733235 13.34444881 -3.52733235 13.34444881 -6 13 C-5.53200031 10.59314446 -5.06721711 8.22853817 -4.375 5.875 C-3.7958595 3.78552327 -3.7958595 3.78552327 -5 1 C-2 0 -2 0 0 0 Z " fill="#7FB47A" transform="translate(653,30)"/>
<path d="M0 0 C11.81139361 -0.68804235 11.81139361 -0.68804235 15.6875 1.75 C18.07290053 4.07093025 18.40447728 4.88495807 19 8 C17.23103898 8.36340286 15.45973374 8.71540883 13.6875 9.0625 C12.70136719 9.25972656 11.71523438 9.45695312 10.69921875 9.66015625 C8 10 8 10 5 9 C4.67 9.99 4.34 10.98 4 12 C3.896875 11.360625 3.79375 10.72125 3.6875 10.0625 C3.460625 9.381875 3.23375 8.70125 3 8 C2.01 7.67 1.02 7.34 0 7 C0 4.69 0 2.38 0 0 Z " fill="#148843" transform="translate(473,20)"/>
<path d="M0 0 C2 3 2 3 1.75 6.5625 C1 10 1 10 -1 12 C-4.5 12.3125 -4.5 12.3125 -8 12 C-10.46943529 8.29584707 -10.46913089 6.37855495 -10 2 C-7.01983499 -1.66789539 -4.31348256 -1.31279904 0 0 Z " fill="#3A3A3A" transform="translate(285,29)"/>
<path d="M0 0 C1.875 1.125 1.875 1.125 3 3 C3.54624158 6.66762206 3.47898298 8.3258758 1.3125 11.375 C-1 13 -1 13 -3.5625 13.4375 C-6 13 -6 13 -7.8125 11.9375 C-9.67036623 8.90624457 -9.37133265 6.46577141 -9 3 C-6.84332735 -0.71426957 -4.0099826 -0.50124783 0 0 Z " fill="#222322" transform="translate(377,78)"/>
<path d="M0 0 C1.65 0 3.3 0 5 0 C5.66 1.65 6.32 3.3 7 5 C9.2236068 3.0745356 9.2236068 3.0745356 10 0 C11.65 0 13.3 0 15 0 C15 3.96 15 7.92 15 12 C14.01 12 13.02 12 12 12 C11.67 10.02 11.34 8.04 11 6 C10.34 7.98 9.68 9.96 9 12 C8.01 12 7.02 12 6 12 C5.34 10.02 4.68 8.04 4 6 C3.67 7.98 3.34 9.96 3 12 C2.01 12 1.02 12 0 12 C0 8.04 0 4.08 0 0 Z " fill="#353535" transform="translate(30,29)"/>
<path d="M0 0 C1.8125 1.0625 1.8125 1.0625 3 3 C3.63316583 8.90954774 3.63316583 8.90954774 1.875 11.9375 C-0.84949899 13.48138276 -2.92891945 13.3267107 -6 13 C-8 11 -8 11 -8.3125 7.0625 C-8.23719217 4.46908648 -8.15247863 3.25680612 -6.8125 1 C-4.33474158 -0.36703913 -2.78844081 -0.41826612 0 0 Z " fill="#141414" transform="translate(270,28)"/>
<path d="M0 0 C1.65 0 3.3 0 5 0 C5.66 1.65 6.32 3.3 7 5 C9.2236068 3.0745356 9.2236068 3.0745356 10 0 C11.65 0 13.3 0 15 0 C15 3.96 15 7.92 15 12 C14.01 12 13.02 12 12 12 C11.67 10.02 11.34 8.04 11 6 C10.34 7.98 9.68 9.96 9 12 C8.01 12 7.02 12 6 12 C5.34 10.02 4.68 8.04 4 6 C3.67 7.98 3.34 9.96 3 12 C2.01 12 1.02 12 0 12 C0 8.04 0 4.08 0 0 Z " fill="#313131" transform="translate(193,29)"/>
<path d="M0 0 C2 2 2 2 2.3125 5.9375 C2.23719217 8.53091352 2.15247863 9.74319388 0.8125 12 C-1.66525842 13.36703913 -3.21155919 13.41826612 -6 13 C-7.8125 11.9375 -7.8125 11.9375 -9 10 C-9.63316583 4.09045226 -9.63316583 4.09045226 -7.875 1.0625 C-5.15050101 -0.48138276 -3.07108055 -0.3267107 0 0 Z " fill="#2C2D2C" transform="translate(436,78)"/>
<path d="M0 0 C0.763125 0.20625 1.52625 0.4125 2.3125 0.625 C2.3125 1.285 2.3125 1.945 2.3125 2.625 C0.9925 2.625 -0.3275 2.625 -1.6875 2.625 C-2.0175 3.285 -2.3475 3.945 -2.6875 4.625 C-0.2125 5.615 -0.2125 5.615 2.3125 6.625 C2.355221 8.29111905 2.35313832 9.95882885 2.3125 11.625 C1.3125 12.625 1.3125 12.625 -1.625 12.6875 C-3.1409375 12.6565625 -3.1409375 12.6565625 -4.6875 12.625 C-5.3475 12.625 -6.0075 12.625 -6.6875 12.625 C-7.6775 12.625 -8.6675 12.625 -9.6875 12.625 C-9.6875 8.665 -9.6875 4.705 -9.6875 0.625 C-8.3675 0.955 -7.0475 1.285 -5.6875 1.625 C-2.6875 -0.375 -2.6875 -0.375 0 0 Z " fill="#808080" transform="translate(168.6875,28.375)"/>
<path d="M0 0 C0.12375 0.94875 0.2475 1.8975 0.375 2.875 C0.71687177 6.08667191 0.71687177 6.08667191 3 8 C2.34 8 1.68 8 1 8 C0.8453125 9.175625 0.8453125 9.175625 0.6875 10.375 C0 13 0 13 -3 15 C-3.28571429 6.42857143 -3.28571429 6.42857143 -1 3 C-3.99294243 3.86637807 -5.6095146 4.38638008 -7.3125 7.0625 C-8.52617476 12.24820125 -8.88852294 17.01140103 -6.6875 21.9375 C-3.57023337 25.74749255 -0.50852025 26.44814851 4.0625 27.33984375 C6.34792737 28.11854783 7.42938991 29.19870656 9 31 C2.92063217 30.72980587 -1.17774296 30.03723846 -6 26 C-10.04828674 21.51406064 -11.37105299 18.17642236 -11.28125 12.05859375 C-10.65042183 7.44128198 -7.69411439 4.62800825 -4.375 1.625 C-2 0 -2 0 0 0 Z " fill="#69A682" transform="translate(473,21)"/>
<path d="M0 0 C2.97 0 5.94 0 9 0 C9 4.29 9 8.58 9 13 C2.84765625 13.09765625 2.84765625 13.09765625 1 13 C0 12 0 12 -0.09765625 9.27734375 C-0.08605469 8.17519531 -0.07445312 7.07304688 -0.0625 5.9375 C-0.05347656 4.83277344 -0.04445313 3.72804688 -0.03515625 2.58984375 C-0.02355469 1.73519531 -0.01195312 0.88054687 0 0 Z " fill="#CBD0CA" transform="translate(305,78)"/>
<path d="M0 0 C0.33 0 0.66 0 1 0 C1 1.98 1 3.96 1 6 C2.98491642 5.73323796 2.98491642 5.73323796 5 5 C5.33 4.01 5.66 3.02 6 2 C7.3913858 7.36677379 7.28844313 10.28668041 4.5625 15.1875 C0.82864517 20.85807392 -3.62435145 23.87478382 -10 26 C-12.22818441 26.06937062 -14.45834524 26.08457084 -16.6875 26.0625 C-18.45673828 26.04896484 -18.45673828 26.04896484 -20.26171875 26.03515625 C-21.16535156 26.02355469 -22.06898438 26.01195313 -23 26 C-23 25.67 -23 25.34 -23 25 C-22.29875 24.97421875 -21.5975 24.9484375 -20.875 24.921875 C-14.20387098 24.5230575 -9.80586802 23.27239834 -4 20 C-3.34 20 -2.68 20 -2 20 C-2 19.34 -2 18.68 -2 18 C-1.34 18 -0.68 18 0 18 C1.52299523 15.06279492 2.80100302 12.0831351 4 9 C3.01 9 2.02 9 1 9 C0.855625 9.61875 0.71125 10.2375 0.5625 10.875 C0 13 0 13 -1 15 C-1.66 15 -2.32 15 -3 15 C-2.125 8.125 -2.125 8.125 -1 7 C-0.63239269 4.67182036 -0.29758419 2.3381615 0 0 Z " fill="#E1F4E8" transform="translate(497,32)"/>
<path d="M0 0 C0.66 0 1.32 0 2 0 C2.66 1.65 3.32 3.3 4 5 C4.66 3.35 5.32 1.7 6 0 C7.32 0 8.64 0 10 0 C10.66 1.98 11.32 3.96 12 6 C12.33 4.02 12.66 2.04 13 0 C13.99 0 14.98 0 16 0 C15.34 3.63 14.68 7.26 14 11 C12.68 11.33 11.36 11.66 10 12 C9.34 10.02 8.68 8.04 8 6 C7.34 7.98 6.68 9.96 6 12 C4.68 12 3.36 12 2 12 C0.70756464 7.8803623 -0.26252625 4.33168317 0 0 Z " fill="#171717" transform="translate(102,29)"/>
<path d="M0 0 C0.99 0.33 1.98 0.66 3 1 C3 4.96 3 8.92 3 13 C-3.6 13 -10.2 13 -17 13 C-17 12.01 -17 11.02 -17 10 C-15.35 10 -13.7 10 -12 10 C-12.66 9.01 -13.32 8.02 -14 7 C-14 6.01 -14 5.02 -14 4 C-13.01 4.33 -12.02 4.66 -11 5 C-11 6.65 -11 8.3 -11 10 C-9.68 10 -8.36 10 -7 10 C-6.34 8.68 -5.68 7.36 -5 6 C-4.34 6 -3.68 6 -3 6 C-2.67 7.32 -2.34 8.64 -2 10 C-1.01 10 -0.02 10 1 10 C0.505 5.05 0.505 5.05 0 0 Z " fill="#76B06F" transform="translate(820,32)"/>
<path d="M0 0 C0.99 0 1.98 0 3 0 C3.66 1.98 4.32 3.96 5 6 C5.33 4.02 5.66 2.04 6 0 C7.32 0 8.64 0 10 0 C11.35439668 2.70879335 11.06501451 5.00933268 11 8 C11.66 8 12.32 8 13 8 C13.33 5.36 13.66 2.72 14 0 C14.66 0 15.32 0 16 0 C15.88541307 1.43836751 15.75790884 2.87570966 15.625 4.3125 C15.55539063 5.11300781 15.48578125 5.91351563 15.4140625 6.73828125 C15 9 15 9 13 12 C12.01 12 11.02 12 10 12 C9.34 10.02 8.68 8.04 8 6 C7.34 7.98 6.68 9.96 6 12 C5.01 12 4.02 12 3 12 C2.49166409 10.75336669 1.99368855 9.50250613 1.5 8.25 C1.2215625 7.55390625 0.943125 6.8578125 0.65625 6.140625 C0 4 0 4 0 0 Z " fill="#272727" transform="translate(84,29)"/>
<path d="M0 0 C0.33 3.63 0.66 7.26 1 11 C2.98 10.67 4.96 10.34 7 10 C7 10.66 7 11.32 7 12 C9.31 12 11.62 12 14 12 C14 11.34 14 10.68 14 10 C14.66 10 15.32 10 16 10 C16 11.65 16 13.3 16 15 C13.45767658 15.08152344 10.91800798 15.14073716 8.375 15.1875 C7.30572266 15.22520508 7.30572266 15.22520508 6.21484375 15.26367188 C1.37723584 15.33024446 -1.74738338 14.55559453 -6 12 C-5.625 10.0625 -5.625 10.0625 -5 8 C-4.34 7.67 -3.68 7.34 -3 7 C-2.67 6.01 -2.34 5.02 -2 4 C-2.99 3.67 -3.98 3.34 -5 3 C-5 2.34 -5 1.68 -5 1 C-2 0 -2 0 0 0 Z " fill="#85B782" transform="translate(777,30)"/>
<path d="M0 0 C0.33 0 0.66 0 1 0 C1.33 2.97 1.66 5.94 2 9 C1.34 9 0.68 9 0 9 C3.14866634 14.97811305 5.77978585 18.22311868 12 21 C14.77138597 21.77485832 14.77138597 21.77485832 17 22 C17 22.66 17 23.32 17 24 C10.89357521 24.78287497 6.99540421 22.10825151 2 19 C2 18.34 2 17.68 2 17 C1.01 16.67 0.02 16.34 -1 16 C-2.16796875 13.85546875 -2.16796875 13.85546875 -3.1875 11.1875 C-3.53167969 10.31480469 -3.87585938 9.44210938 -4.23046875 8.54296875 C-5 6 -5 6 -5 2 C-4.01 1.67 -3.02 1.34 -2 1 C-1.34 1.33 -0.68 1.66 0 2 C0 1.34 0 0.68 0 0 Z " fill="#BAD9C5" transform="translate(461,32)"/>
<path d="M0 0 C2.475 0.495 2.475 0.495 5 1 C6.3125 3.5625 6.3125 3.5625 7 6 C7.598125 5.01 8.19625 4.02 8.8125 3 C9.8953125 1.515 9.8953125 1.515 11 0 C11.99 0 12.98 0 14 0 C14 3.96 14 7.92 14 12 C13.34 12 12.68 12 12 12 C11.67 10.02 11.34 8.04 11 6 C10.34 7.98 9.68 9.96 9 12 C7.68 12 6.36 12 5 12 C4.34 9.36 3.68 6.72 3 4 C2.67 6.97 2.34 9.94 2 13 C1.34 13 0.68 13 0 13 C0 8.71 0 4.42 0 0 Z " fill="#1D1E1D" transform="translate(315,78)"/>
<path d="M0 0 C0.66 0 1.32 0 2 0 C2 2.97 2 5.94 2 9 C3.98 8.34 5.96 7.68 8 7 C8 7.66 8 8.32 8 9 C10.31 9 12.62 9 15 9 C15.33 8.34 15.66 7.68 16 7 C16 8.65 16 10.3 16 12 C10.33333333 12 4.66666667 12 -1 12 C-1.33 12.33 -1.66 12.66 -2 13 C-3.66617115 13.04063832 -5.33388095 13.042721 -7 13 C-5.35 11.35 -3.7 9.7 -2 8 C-3.25541557 5.48916886 -4.50063488 5.12874554 -7 4 C-7 3.01 -7 2.02 -7 1 C-2.125 2.875 -2.125 2.875 -1 4 C-0.67 2.68 -0.34 1.36 0 0 Z " fill="#88B984" transform="translate(678,33)"/>
<path d="M0 0 C2.5 0.25 2.5 0.25 4.5 2.25 C4.85173852 6.04877599 5.02701444 8.39360153 3 11.6875 C2.505 12.203125 2.01 12.71875 1.5 13.25 C-0.9375 12.875 -0.9375 12.875 -3.5 12.25 C-4.61445498 10.02109005 -4.66480286 8.71944894 -4.6875 6.25 C-4.70167969 5.54875 -4.71585938 4.8475 -4.73046875 4.125 C-4.34202978 0.96481851 -3.03116737 0.30311674 0 0 Z " fill="#424442" transform="translate(563.5,77.75)"/>
<path d="M0 0 C2.5 -0.3125 2.5 -0.3125 5 0 C7.60704898 2.60704898 7.23905333 4.47338241 7.265625 8.02734375 C7 10 7 10 5 13 C0.25 12.25 0.25 12.25 -2 10 C-2.31537716 5.66356399 -2.44897847 3.67346771 0 0 Z " fill="#2A2B2A" transform="translate(515,78)"/>
<path d="M0 0 C9.21361987 -0.41461289 16.19430346 -0.11367677 23.6875 5.5625 C29.00112641 10.4983227 32.22303219 16.78657327 32.5625 24.0625 C32.28917948 29.15108506 30.76314157 33.71204786 28 38 C27.01 38.66 26.02 39.32 25 40 C26.83457249 35.28252788 26.83457249 35.28252788 28.04296875 33.21875 C30.31414507 27.95332898 30.06612915 20.87351547 28.08984375 15.546875 C24.35630393 9.25628058 19.14686914 4.92973999 12.234375 2.55859375 C8.21094039 1.5527351 4.13069799 1.24547181 0 1 C0 0.67 0 0.34 0 0 Z " fill="#71A788" transform="translate(474,11)"/>
<path d="M0 0 C0.99 0 1.98 0 3 0 C2.4739075 3.78786597 1.61896089 6.17152224 -1 9 C-1.66 9 -2.32 9 -3 9 C-3 9.66 -3 10.32 -3 11 C-8.5825192 14.32575612 -12.49686791 15.46450943 -19 15 C-19 14.34 -19 13.68 -19 13 C-16.03 13.495 -16.03 13.495 -13 14 C-13 13.34 -13 12.68 -13 12 C-12.01 12 -11.02 12 -10 12 C-10 11.34 -10 10.68 -10 10 C-10.99 9.67 -11.98 9.34 -13 9 C-11.906875 8.401875 -10.81375 7.80375 -9.6875 7.1875 C-7.08925871 5.70955303 -4.95650507 4.30177067 -3 2 C-3.33 3.32 -3.66 4.64 -4 6 C-3.34 6 -2.68 6 -2 6 C-1.34 4.02 -0.68 2.04 0 0 Z " fill="#CFE5D8" transform="translate(498,41)"/>
<path d="M0 0 C4 1 4 1 5.25 3.0625 C5.4975 3.701875 5.745 4.34125 6 5 C6.33 3.35 6.66 1.7 7 0 C7.99 0 8.98 0 10 0 C10 3.96 10 7.92 10 12 C8.68 12 7.36 12 6 12 C5.01 10.02 4.02 8.04 3 6 C2.67 7.98 2.34 9.96 2 12 C1.34 12 0.68 12 0 12 C0 8.04 0 4.08 0 0 Z " fill="#303130" transform="translate(454,78)"/>
<path d="M0 0 C4 1 4 1 5.25 3.0625 C5.4975 3.701875 5.745 4.34125 6 5 C6.33 3.35 6.66 1.7 7 0 C7.99 0 8.98 0 10 0 C10 3.96 10 7.92 10 12 C8.68 12 7.36 12 6 12 C5.01 10.02 4.02 8.04 3 6 C2.67 7.98 2.34 9.96 2 12 C1.34 12 0.68 12 0 12 C0 8.04 0 4.08 0 0 Z " fill="#2C2D2C" transform="translate(342,78)"/>
<path d="M0 0 C0.66 0 1.32 0 2 0 C5 3.46153846 5 3.46153846 5 6 C5.66 6 6.32 6 7 6 C7.33 6.99 7.66 7.98 8 9 C8.99 9.66 9.98 10.32 11 11 C11.40843923 13.71203652 11.13336867 16.2437142 11 19 C9.02 19.66 7.04 20.32 5 21 C4.95101563 20.40832031 4.90203125 19.81664063 4.8515625 19.20703125 C4.42867095 14.73750503 3.71706666 11.17001904 2 7 C2.33 6.01 2.66 5.02 3 4 C2.01 3.67 1.02 3.34 0 3 C0 2.01 0 1.02 0 0 Z " fill="#B6DAC5" transform="translate(491,18)"/>
<path d="M0 0 C0.99 0 1.98 0 3 0 C3 1.32 3 2.64 3 4 C4.32 4 5.64 4 7 4 C7 2.68 7 1.36 7 0 C7.99 0 8.98 0 10 0 C10 3.96 10 7.92 10 12 C9.01 12 8.02 12 7 12 C7 10.35 7 8.7 7 7 C5.68 7 4.36 7 3 7 C3 8.65 3 10.3 3 12 C2.01 12 1.02 12 0 12 C0 8.04 0 4.08 0 0 Z " fill="#4C4D4C" transform="translate(250,29)"/>
<path d="M0 0 C1.890625 0.2265625 1.890625 0.2265625 4 1 C5.046875 2.9609375 5.046875 2.9609375 5.75 5.375 C5.99234375 6.16648437 6.2346875 6.95796875 6.484375 7.7734375 C7 10 7 10 7 13 C6.01 12.67 5.02 12.34 4 12 C4 11.34 4 10.68 4 10 C2.35 10 0.7 10 -1 10 C-1 10.99 -1 11.98 -1 13 C-1.99 13 -2.98 13 -4 13 C-3.71517632 11.58194169 -3.42181856 10.16559621 -3.125 8.75 C-2.96257813 7.96109375 -2.80015625 7.1721875 -2.6328125 6.359375 C-2.00849925 4.03168856 -1.15161458 2.10968048 0 0 Z " fill="#2C2D2C" transform="translate(9,28)"/>
<path d="M0 0 C3 1 3 1 5.25 3.875 C7.96763739 7.20991786 10.76429125 9.11186752 15 10 C19.014451 10.22637882 22.9845136 10.17802649 27 10 C27 10.66 27 11.32 27 12 C26.01 12 25.02 12 24 12 C24 12.66 24 13.32 24 14 C16.87891507 14.45453734 10.34953664 13.06306429 4.5625 8.6875 C1.83927628 5.8314361 0.88559627 3.80806394 0 0 Z " fill="#E6F5EA" transform="translate(461,41)"/>
<path d="M0 0 C0.66 0 1.32 0 2 0 C2.33 3.96 2.66 7.92 3 12 C-3.86515862 12.26404456 -10.25846717 11.25841946 -17 10 C-15.68 9.34 -14.36 8.68 -13 8 C-13 7.34 -13 6.68 -13 6 C-12.34 6 -11.68 6 -11 6 C-11 6.99 -11 7.98 -11 9 C-7.87802522 7.6910428 -7.87802522 7.6910428 -6 5 C-5.01 5 -4.02 5 -3 5 C-2.67 6.32 -2.34 7.64 -2 9 C-1.01 9 -0.02 9 1 9 C0.67 6.03 0.34 3.06 0 0 Z " fill="#8BBB88" transform="translate(758,33)"/>
<path d="M0 0 C3.3 0 6.6 0 10 0 C10 0.66 10 1.32 10 2 C8.68 2 7.36 2 6 2 C6 5.3 6 8.6 6 12 C3 12 3 12 1.5 10.75 C-3 5.5 -3 5.5 -3 2 C-2.01 2 -1.02 2 0 2 C0 1.34 0 0.68 0 0 Z " fill="#CDD2CC" transform="translate(294,78)"/>
<path d="M0 0 C1.32 0 2.64 0 4 0 C4.50833591 1.24663331 5.00631145 2.49749387 5.5 3.75 C5.7784375 4.44609375 6.056875 5.1421875 6.34375 5.859375 C7 8 7 8 7 12 C6.01 11.67 5.02 11.34 4 11 C4 10.34 4 9.68 4 9 C2.35 9 0.7 9 -1 9 C-1.33 9.99 -1.66 10.98 -2 12 C-2.66 12 -3.32 12 -4 12 C-3.71640113 10.5608866 -3.42278601 9.12374482 -3.125 7.6875 C-2.96257812 6.88699219 -2.80015625 6.08648437 -2.6328125 5.26171875 C-2 3 -2 3 0 0 Z " fill="#232424" transform="translate(76,29)"/>
<path d="M0 0 C1.65 0.33 3.3 0.66 5 1 C5.99 4.63 6.98 8.26 8 12 C7.01 12 6.02 12 5 12 C5 11.01 5 10.02 5 9 C2.52733235 9.34444881 2.52733235 9.34444881 0 10 C-0.33 10.66 -0.66 11.32 -1 12 C-1.66 12 -2.32 12 -3 12 C-2.49202991 7.6822542 -1.80317221 3.96697886 0 0 Z " fill="#1E1F1E" transform="translate(184,29)"/>
<path d="M0 0 C1.65 0.33 3.3 0.66 5 1 C5.99 4.63 6.98 8.26 8 12 C7.01 12 6.02 12 5 12 C5 11.01 5 10.02 5 9 C2.52733235 9.34444881 2.52733235 9.34444881 0 10 C-0.33 10.66 -0.66 11.32 -1 12 C-1.66 12 -2.32 12 -3 12 C-2.49202991 7.6822542 -1.80317221 3.96697886 0 0 Z " fill="#202020" transform="translate(145,29)"/>
<path d="M0 0 C0.66 0 1.32 0 2 0 C2.33 3.3 2.66 6.6 3 10 C3.99 10 4.98 10 6 10 C6.33 7.03 6.66 4.06 7 1 C7.99 1 8.98 1 10 1 C10.08131463 2.43655854 10.13933559 3.8744483 10.1875 5.3125 C10.22230469 6.11300781 10.25710937 6.91351563 10.29296875 7.73828125 C10 10 10 10 8.6796875 11.76953125 C6.09909686 13.65996393 4.09481282 13.39508249 1 13 C-1.11295256 9.83057116 -1.25250929 9.00370047 -1.1875 5.375 C-1.17783203 4.18003906 -1.17783203 4.18003906 -1.16796875 2.9609375 C-1 1 -1 1 0 0 Z " fill="#2C2D2D" transform="translate(48,28)"/>
<path d="M0 0 C1.953125 0.1953125 1.953125 0.1953125 4 1 C5.046875 2.7421875 5.046875 2.7421875 5.75 4.875 C6.11351562 5.92300781 6.11351562 5.92300781 6.484375 6.9921875 C7 9 7 9 7 12 C6.01 12 5.02 12 4 12 C4 11.34 4 10.68 4 10 C1.36 10.66 -1.28 11.32 -4 12 C-3.52494322 10.18641846 -3.04483958 8.37415821 -2.5625 6.5625 C-2.29566406 5.55316406 -2.02882813 4.54382813 -1.75390625 3.50390625 C-1 1 -1 1 0 0 Z " fill="#1A1A1A" transform="translate(398,78)"/>
<path d="M0 0 C2.31 0 4.62 0 7 0 C7.89005156 4.11648845 8 7.78025684 8 12 C7.34 12 6.68 12 6 12 C5.71125 11.360625 5.4225 10.72125 5.125 10.0625 C4.17176549 7.84793921 4.17176549 7.84793921 2 7 C2 8.65 2 10.3 2 12 C1.34 12 0.68 12 0 12 C0 8.04 0 4.08 0 0 Z " fill="#080808" transform="translate(132,29)"/>
<path d="M0 0 C1.32 0 2.64 0 4 0 C4.99 1.98 5.98 3.96 7 6 C7.33 4.02 7.66 2.04 8 0 C8.66 0 9.32 0 10 0 C10 3.96 10 7.92 10 12 C8.68 11.67 7.36 11.34 6 11 C4.25 7.9375 4.25 7.9375 3 5 C2.67 7.31 2.34 9.62 2 12 C1.34 12 0.68 12 0 12 C0 8.04 0 4.08 0 0 Z " fill="#121212" transform="translate(60,29)"/>
<path d="M0 0 C0.66 0 1.32 0 2 0 C2.33 2.97 2.66 5.94 3 9 C4.32 9.33 5.64 9.66 7 10 C7 6.7 7 3.4 7 0 C7.99 0 8.98 0 10 0 C10.08121924 1.60332791 10.13929134 3.20784026 10.1875 4.8125 C10.22230469 5.70582031 10.25710938 6.59914063 10.29296875 7.51953125 C10 10 10 10 8.6484375 11.8046875 C6.33875035 13.47948435 4.78395062 13.35691675 2 13 C0 11 0 11 -0.1953125 8.3984375 C-0.17210937 7.40070313 -0.14890625 6.40296875 -0.125 5.375 C-0.10695313 4.37210937 -0.08890625 3.36921875 -0.0703125 2.3359375 C-0.04710937 1.56507812 -0.02390625 0.79421875 0 0 Z " fill="#282828" transform="translate(441,78)"/>
<path d="M0 0 C-0.51949219 0.24234375 -1.03898437 0.4846875 -1.57421875 0.734375 C-7.04177077 3.36203401 -11.55828099 5.83742148 -15 11 C-15 11.99 -15 12.98 -15 14 C-14.34 14.33 -13.68 14.66 -13 15 C-12.34 13.68 -11.68 12.36 -11 11 C-11.33 12.65 -11.66 14.3 -12 16 C-15 17 -15 17 -18 16 C-18 19.3 -18 22.6 -18 26 C-18.33 26 -18.66 26 -19 26 C-20.1337184 19.98636325 -20.5915523 15.29794525 -17.44140625 9.88671875 C-13.43702705 4.64521427 -7.04892828 -2.51747439 0 0 Z " fill="#82B195" transform="translate(473,13)"/>
<path d="M0 0 C1.32 0 2.64 0 4 0 C4.50559908 1.43554025 5.0042749 2.8735202 5.5 4.3125 C5.7784375 5.11300781 6.056875 5.91351563 6.34375 6.73828125 C7 9 7 9 7 12 C6.01 11.67 5.02 11.34 4 11 C4 10.34 4 9.68 4 9 C2.35 9 0.7 9 -1 9 C-1 9.99 -1 10.98 -1 12 C-1.99 12 -2.98 12 -4 12 C-3.34 9.03 -2.68 6.06 -2 3 C-1.34 3 -0.68 3 0 3 C0 4.32 0 5.64 0 7 C0.66 6.67 1.32 6.34 2 6 C2 4.68 2 3.36 2 2 C1.34 2 0.68 2 0 2 C0 1.34 0 0.68 0 0 Z " fill="#262626" transform="translate(123,29)"/>
<path d="M0 0 C2.31 0.33 4.62 0.66 7 1 C6.25 6.75 6.25 6.75 4 9 C4.99 9.33 5.98 9.66 7 10 C7 10.99 7 11.98 7 13 C4.36 13 1.72 13 -1 13 C-0.39561204 9.61542745 0.93001365 7.6999822 3 5 C3 4.34 3 3.68 3 3 C1.68 3 0.36 3 -1 3 C-0.67 2.01 -0.34 1.02 0 0 Z " fill="#373837" transform="translate(505,78)"/>
<path d="M0 0 C0.99 0.33 1.98 0.66 3 1 C2.34 4.96 1.68 8.92 1 13 C-0.65 13.33 -2.3 13.66 -4 14 C-4 12.68 -4 11.36 -4 10 C-3.34 10 -2.68 10 -2 10 C-2.70816999 6.90675971 -2.70816999 6.90675971 -5.0625 5.5 C-5.701875 5.005 -6.34125 4.51 -7 4 C-7 3.01 -7 2.02 -7 1 C-4.53199953 2.15173355 -2.95216435 3.04783565 -1 5 C-0.67 3.35 -0.34 1.7 0 0 Z " fill="#98C397" transform="translate(702,33)"/>
<path d="M0 0 C0 3.96 0 7.92 0 12 C2.31 12 4.62 12 7 12 C7 12.33 7 12.66 7 13 C-1.42857143 14.28571429 -1.42857143 14.28571429 -6 13 C-5.53200031 10.59314446 -5.06721711 8.22853817 -4.375 5.875 C-3.7958595 3.78552327 -3.7958595 3.78552327 -5 1 C-2 0 -2 0 0 0 Z " fill="#B8D4B9" transform="translate(653,30)"/>
<path d="M0 0 C0 3.96 0 7.92 0 12 C-1.65 12.33 -3.3 12.66 -5 13 C-5.33 9.37 -5.66 5.74 -6 2 C-3 0 -3 0 0 0 Z " fill="#C3DBC3" transform="translate(721,32)"/>
<path d="M0 0 C0.94875 0.04125 1.8975 0.0825 2.875 0.125 C3.205 1.115 3.535 2.105 3.875 3.125 C2.225 3.125 0.575 3.125 -1.125 3.125 C-1.455 5.435 -1.785 7.745 -2.125 10.125 C-0.145 10.125 1.835 10.125 3.875 10.125 C3.875 10.785 3.875 11.445 3.875 12.125 C-1.49813433 13.43843284 -1.49813433 13.43843284 -4 12.1875 C-5.85020103 8.79546479 -5.42897492 5.95508402 -5.125 2.125 C-3.125 0.125 -3.125 0.125 0 0 Z " fill="#2D2D2D" transform="translate(422.125,77.875)"/>
<path d="M0 0 C2.31 0 4.62 0 7 0 C7 0.66 7 1.32 7 2 C5.68 2 4.36 2 3 2 C3 2.99 3 3.98 3 5 C4.32 5 5.64 5 7 5 C7 5.66 7 6.32 7 7 C5.68 7 4.36 7 3 7 C3 7.99 3 8.98 3 10 C4.32 10 5.64 10 7 10 C7 10.66 7 11.32 7 12 C4.69 12 2.38 12 0 12 C0 8.04 0 4.08 0 0 Z " fill="#252625" transform="translate(332,78)"/>
<path d="M0 0 C0 0.66 0 1.32 0 2 C-1.65 2.33 -3.3 2.66 -5 3 C-5 4.98 -5 6.96 -5 9 C-3.35 9 -1.7 9 0 9 C-0.33 9.99 -0.66 10.98 -1 12 C-3.875 12.1875 -3.875 12.1875 -7 12 C-9.46324069 8.30513897 -9.38991688 6.36706908 -9 2 C-6.73990077 -2.01795419 -4.05658773 -0.99161033 0 0 Z " fill="#1F1F1F" transform="translate(248,29)"/>
<path d="M0 0 C0.12375 0.94875 0.2475 1.8975 0.375 2.875 C0.71687177 6.08667191 0.71687177 6.08667191 3 8 C2.34 8 1.68 8 1 8 C0.8453125 9.175625 0.8453125 9.175625 0.6875 10.375 C0 13 0 13 -3 15 C-3.28571429 6.42857143 -3.28571429 6.42857143 -1 3 C-3.47627099 3.63921965 -3.47627099 3.63921965 -6 5 C-7.23290201 7.45704762 -7.23290201 7.45704762 -8 10 C-8.66 10.66 -9.32 11.32 -10 12 C-9.92403834 8.80961017 -9.61211245 6.68285912 -7.4453125 4.265625 C-2.55 0 -2.55 0 0 0 Z " fill="#539C71" transform="translate(473,21)"/>
<path d="M0 0 C0 0.99 0 1.98 0 3 C-1.32 3 -2.64 3 -4 3 C-4 4.98 -4 6.96 -4 9 C-2.35 9.33 -0.7 9.66 1 10 C0.67 10.99 0.34 11.98 0 13 C-2.70313576 13.21917317 -4.43958382 13.32851983 -6.8125 11.9375 C-8.67036623 8.90624457 -8.37133265 6.46577141 -8 3 C-5.91685466 -0.39881608 -3.78885018 -0.30720407 0 0 Z " fill="#393A39" transform="translate(414,78)"/>
<path d="M0 0 C2.64 0 5.28 0 8 0 C8 0.66 8 1.32 8 2 C6.35 2 4.7 2 3 2 C3 2.99 3 3.98 3 5 C4.32 5 5.64 5 7 5 C7 5.66 7 6.32 7 7 C5.68 7 4.36 7 3 7 C3 8.32 3 9.64 3 11 C4.32 11.33 5.64 11.66 7 12 C4.69 12 2.38 12 0 12 C0 8.04 0 4.08 0 0 Z " fill="#252625" transform="translate(305,78)"/>
<path d="M0 0 C1.2065625 0.0309375 1.2065625 0.0309375 2.4375 0.0625 C2.4375 0.7225 2.4375 1.3825 2.4375 2.0625 C1.1175 2.0625 -0.2025 2.0625 -1.5625 2.0625 C-0.716875 2.784375 0.12875 3.50625 1 4.25 C3.4375 7.0625 3.4375 7.0625 3.3125 9.8125 C2.4375 12.0625 2.4375 12.0625 1.4375 13.0625 C-0.22867115 13.10313832 -1.89638095 13.105221 -3.5625 13.0625 C-3.8925 12.0725 -4.2225 11.0825 -4.5625 10.0625 C-2.9125 10.0625 -1.2625 10.0625 0.4375 10.0625 C-0.2225 9.505625 -0.8825 8.94875 -1.5625 8.375 C-3.5625 6.0625 -3.5625 6.0625 -3.875 3.375 C-3.43648498 0.12998888 -3.3114813 0.08076784 0 0 Z " fill="#131414" transform="translate(268.5625,77.9375)"/>
<path d="M0 0 C0 0.66 0 1.32 0 2 C-1.32 2 -2.64 2 -4 2 C-4.33 2.66 -4.66 3.32 -5 4 C-2.525 4.99 -2.525 4.99 0 6 C0.042721 7.66611905 0.04063832 9.33382885 0 11 C-1 12 -1 12 -4.0625 12.0625 C-5.031875 12.041875 -6.00125 12.02125 -7 12 C-7.33 11.01 -7.66 10.02 -8 9 C-6.35 9 -4.7 9 -3 9 C-3.66 8.443125 -4.32 7.88625 -5 7.3125 C-7 5 -7 5 -7.25 2.25 C-7.1675 1.5075 -7.085 0.765 -7 0 C-4.3333581 -1.33332095 -2.83319697 -0.67102033 0 0 Z " fill="#131313" transform="translate(171,29)"/>
<path d="M0 0 C3.33333333 0 6.66666667 0 10 0 C10 1.98 10 3.96 10 6 C6.04 6 2.08 6 -2 6 C-1.34 4.02 -0.68 2.04 0 0 Z " fill="#AFD6BB" transform="translate(474,29)"/>
<path d="M0 0 C0 0.66 0 1.32 0 2 C-0.639375 2.12375 -1.27875 2.2475 -1.9375 2.375 C-2.618125 2.58125 -3.29875 2.7875 -4 3 C-4.33 3.66 -4.66 4.32 -5 5 C-3.35 5 -1.7 5 0 5 C0.625 7.375 0.625 7.375 1 10 C0.34 10.66 -0.32 11.32 -1 12 C-1.99 11.67 -2.98 11.34 -4 11 C-3.34 11 -2.68 11 -2 11 C-2 9.68 -2 8.36 -2 7 C-3.32 7 -4.64 7 -6 7 C-6 7.99 -6 8.98 -6 10 C-6.66 10 -7.32 10 -8 10 C-8.36272727 3.59181818 -8.36272727 3.59181818 -6.8125 1.0625 C-4.43958382 -0.32851983 -2.70313576 -0.21917317 0 0 Z " fill="#272828" transform="translate(541,78)"/>
<path d="M0 0 C1.67542976 0.28604898 3.34385343 0.61781233 5 1 C5 1.66 5 2.32 5 3 C3.68 3 2.36 3 1 3 C1.66 3.556875 2.32 4.11375 3 4.6875 C5 7 5 7 5.3125 9.6875 C5 12 5 12 4 13 C2.00041636 13.04080783 -0.00045254 13.04254356 -2 13 C-2 12.34 -2 11.68 -2 11 C-0.35 11 1.3 11 3 11 C2.154375 10.278125 1.30875 9.55625 0.4375 8.8125 C-2 6 -2 6 -1.875 3.25 C-1 1 -1 1 0 0 Z " fill="#1C1C1C" transform="translate(232,28)"/>
<path d="M0 0 C3 0 3 0 4.6875 1.375 C6 3 6 3 6 5 C6.7425 5.28875 7.485 5.5775 8.25 5.875 C11 7 11 7 12.75 8.03125 C15.76045739 9.32741916 18.48714667 9.4292288 21.75 9.625 C22.92046875 9.69976562 24.0909375 9.77453125 25.296875 9.8515625 C26.63492187 9.92503906 26.63492187 9.92503906 28 10 C28 10.33 28 10.66 28 11 C19.47157799 12.35176718 13.25908073 12.86760275 6 7.76953125 C3.31247285 5.39169961 1.66197295 3.17285746 0 0 Z " fill="#D7ECDE" transform="translate(457,46)"/>
<path d="M0 0 C1.66611905 -0.042721 3.33382885 -0.04063832 5 0 C6 1 6 1 6.1875 3.375 C6 6 6 6 4 9 C4.99 9.33 5.98 9.66 7 10 C7 10.66 7 11.32 7 12 C4.36 12 1.72 12 -1 12 C-0.42655063 9.13275314 -0.1385485 8.1385485 2 6 C2.6425235 3.93125966 2.6425235 3.93125966 3 2 C1.68 2.33 0.36 2.66 -1 3 C-0.67 2.01 -0.34 1.02 0 0 Z " fill="#2A2B2A" transform="translate(525,78)"/>
<path d="M0 0 C2.375 -0.125 2.375 -0.125 5 0 C5.66 0.66 6.32 1.32 7 2 C6.67028521 5.29714793 6.3773161 6.6226839 4 9 C4.99 9.33 5.98 9.66 7 10 C7 10.66 7 11.32 7 12 C4.36 12 1.72 12 -1 12 C-0.71125 11.443125 -0.4225 10.88625 -0.125 10.3125 C1.0413253 7.91505355 2.0339881 5.48403061 3 3 C1.68 3 0.36 3 -1 3 C-0.67 2.01 -0.34 1.02 0 0 Z " fill="#202020" transform="translate(570,78)"/>
<path d="M0 0 C1.670625 0.061875 1.670625 0.061875 3.375 0.125 C3.375 0.785 3.375 1.445 3.375 2.125 C1.725 2.455 0.075 2.785 -1.625 3.125 C-1.625 5.105 -1.625 7.085 -1.625 9.125 C0.025 9.125 1.675 9.125 3.375 9.125 C3.045 10.115 2.715 11.105 2.375 12.125 C-0.5 12.3125 -0.5 12.3125 -3.625 12.125 C-6.07397847 8.45153229 -5.94037716 6.46143601 -5.625 2.125 C-3.625 0.125 -3.625 0.125 0 0 Z " fill="#202020" transform="translate(220.625,28.875)"/>
<path d="M0 0 C1.65 0 3.3 0 5 0 C5 3.96 5 7.92 5 12 C4.01 12 3.02 12 2 12 C1.67 10.02 1.34 8.04 1 6 C0.34 6.99 -0.32 7.98 -1 9 C-2.0326802 6.21176345 -2.04509293 5.1322726 -1.0625 2.25 C-0.711875 1.5075 -0.36125 0.765 0 0 Z " fill="#3F3F3F" transform="translate(203,29)"/>
<path d="M0 0 C1.4540625 0.0309375 1.4540625 0.0309375 2.9375 0.0625 C2.9375 0.7225 2.9375 1.3825 2.9375 2.0625 C1.6175 2.0625 0.2975 2.0625 -1.0625 2.0625 C-1.0625 3.0525 -1.0625 4.0425 -1.0625 5.0625 C0.2575 5.3925 1.5775 5.7225 2.9375 6.0625 C2.980221 7.72861905 2.97813832 9.39632885 2.9375 11.0625 C1.9375 12.0625 1.9375 12.0625 -1.125 12.125 C-2.094375 12.104375 -3.06375 12.08375 -4.0625 12.0625 C-4.0625 11.4025 -4.0625 10.7425 -4.0625 10.0625 C-2.4125 10.0625 -0.7625 10.0625 0.9375 10.0625 C0.9375 9.4025 0.9375 8.7425 0.9375 8.0625 C-1.5375 7.0725 -1.5375 7.0725 -4.0625 6.0625 C-4.105221 4.39638095 -4.10313832 2.72867115 -4.0625 1.0625 C-3.0625 0.0625 -3.0625 0.0625 0 0 Z " fill="#202120" transform="translate(484.0625,77.9375)"/>
<path d="M0 0 C1.99954746 -0.04254356 4.00041636 -0.04080783 6 0 C7 1 7 1 7.25 3.375 C7 6 7 6 5.5 7.8125 C5.005 8.204375 4.51 8.59625 4 9 C4.99 9.33 5.98 9.66 7 10 C7 10.66 7 11.32 7 12 C4.36 12 1.72 12 -1 12 C0.15173355 9.53199953 1.04783565 7.95216435 3 6 C3.6425235 3.93125966 3.6425235 3.93125966 4 2 C2.68 2 1.36 2 0 2 C0 1.34 0 0.68 0 0 Z " fill="#1D1D1D" transform="translate(550,78)"/>
<path d="M0 0 C2.64 0 5.28 0 8 0 C7.34 1.65 6.68 3.3 6 5 C4.35 5 2.7 5 1 5 C1.99 8.96 2.98 12.92 4 17 C3.01 16.67 2.02 16.34 1 16 C-0.14077657 12.57767028 -0.09815117 9.91326783 -0.0625 6.3125 C-0.05347656 5.13300781 -0.04445313 3.95351563 -0.03515625 2.73828125 C-0.02355469 1.83464844 -0.01195312 0.93101563 0 0 Z " fill="#EEF8F1" transform="translate(455,29)"/>
<path d="M0 0 C0.99 0 1.98 0 3 0 C3 1.32 3 2.64 3 4 C3.66 4 4.32 4 5 4 C5 3.01 5 2.02 5 1 C6.32 1 7.64 1 9 1 C9 2.98 9 4.96 9 7 C4.05 7 -0.9 7 -6 7 C-6 6.67 -6 6.34 -6 6 C-3.36 6 -0.72 6 2 6 C2 5.34 2 4.68 2 4 C0.68 3.67 -0.64 3.34 -2 3 C-1.34 2.01 -0.68 1.02 0 0 Z " fill="#C5CAC4" transform="translate(530,84)"/>
<path d="M0 0 C1.65 0 3.3 0 5 0 C5.66 2.31 6.32 4.62 7 7 C6.01 6.67 5.02 6.34 4 6 C3.67 7.98 3.34 9.96 3 12 C2.01 12 1.02 12 0 12 C0 8.04 0 4.08 0 0 Z " fill="#353636" transform="translate(30,29)"/>
<path d="M0 0 C3 1 3 1 5 3 C5.66 2.01 6.32 1.02 7 0 C7.66 0 8.32 0 9 0 C8.690625 0.845625 8.38125 1.69125 8.0625 2.5625 C6.98461179 6.0497854 6.43418696 9.38177535 6 13 C5.01 13 4.02 13 3 13 C2.86722656 12.39671875 2.73445313 11.7934375 2.59765625 11.171875 C2.42105469 10.37265625 2.24445313 9.5734375 2.0625 8.75 C1.88847656 7.96109375 1.71445312 7.1721875 1.53515625 6.359375 C1.052444 4.23121297 0.53836822 2.11467158 0 0 Z " fill="#262726" transform="translate(489,78)"/>
<path d="M0 0 C2.5 0.25 2.5 0.25 4.5 2.25 C4.625 5.875 4.625 5.875 4.5 9.25 C3.51 9.58 2.52 9.91 1.5 10.25 C1.5 7.61 1.5 4.97 1.5 2.25 C0.51 2.58 -0.48 2.91 -1.5 3.25 C-2.72969878 6.76190809 -2.72969878 6.76190809 -3.5 10.25 C-3.83 10.25 -4.16 10.25 -4.5 10.25 C-4.6953125 4.1953125 -4.6953125 4.1953125 -4.5 2.25 C-2.5 0.25 -2.5 0.25 0 0 Z " fill="#2B2B2B" transform="translate(563.5,77.75)"/>
<path d="M0 0 C0.33 0 0.66 0 1 0 C1.66 1.98 2.32 3.96 3 6 C3.33 4.02 3.66 2.04 4 0 C4.99 0 5.98 0 7 0 C6.34 3.63 5.68 7.26 5 11 C3.68 11.33 2.36 11.66 1 12 C0.01 9.36 -0.98 6.72 -2 4 C-1.34 4 -0.68 4 0 4 C0 2.68 0 1.36 0 0 Z " fill="#242424" transform="translate(111,29)"/>
<path d="M0 0 C3 1 3 1 4.8125 3.375 C8.37112404 7.64534885 12.58646964 9.20389259 18 10 C18 10.66 18 11.32 18 12 C11.89357521 12.78287497 7.99540421 10.10825151 3 7 C3 6.34 3 5.68 3 5 C2.01 4.67 1.02 4.34 0 4 C0 2.68 0 1.36 0 0 Z " fill="#97C1A5" transform="translate(460,44)"/>
<path d="M0 0 C0.33 0.66 0.66 1.32 1 2 C3.31 2 5.62 2 8 2 C8 1.34 8 0.68 8 0 C8.66 0 9.32 0 10 0 C10 1.65 10 3.3 10 5 C4.72 5 -0.56 5 -6 5 C-6 4.34 -6 3.68 -6 3 C-4.35 3 -2.7 3 -1 3 C-0.67 2.01 -0.34 1.02 0 0 Z " fill="#7AB274" transform="translate(783,40)"/>
<path d="M0 0 C0.99 0 1.98 0 3 0 C3 3.63 3 7.26 3 11 C4.32 11 5.64 11 7 11 C7 11.66 7 12.32 7 13 C4.69 13 2.38 13 0 13 C0 8.71 0 4.42 0 0 Z " fill="#343434" transform="translate(173,28)"/>
<path d="M0 0 C1.5625 1.1875 1.5625 1.1875 3 3 C2.6875 5.6875 2.6875 5.6875 2 8 C-1.73486879 8.5745952 -5.21293268 9 -9 9 C-5.25 6 -5.25 6 -3 6 C-3 5.01 -3 4.02 -3 3 C-3.66 2.67 -4.32 2.34 -5 2 C-3.35 1.34 -1.7 0.68 0 0 Z " fill="#B8D4C5" transform="translate(471,13)"/>
<path d="M0 0 C2.9375 0.8125 2.9375 0.8125 6 2 C6.33 2.99 6.66 3.98 7 5 C5.68 4.67 4.36 4.34 3 4 C3.33 4.99 3.66 5.98 4 7 C4.66 7.33 5.32 7.66 6 8 C6 8.99 6 9.98 6 11 C2.62496331 9.8141763 0.35277269 8.72426311 -2 6 C-1.01 5.01 -0.02 4.02 1 3 C0.67 2.01 0.34 1.02 0 0 Z " fill="#DEF0E4" transform="translate(488,14)"/>
<path d="M0 0 C1.67542976 0.28604898 3.34385343 0.61781233 5 1 C5.04254356 2.99954746 5.04080783 5.00041636 5 7 C4 8 4 8 1.4375 8.0625 C0.633125 8.041875 -0.17125 8.02125 -1 8 C-1.04241723 5.66705225 -1.04092937 3.33297433 -1 1 C-0.67 0.67 -0.34 0.34 0 0 Z " fill="#D7DCD6" transform="translate(431,80)"/>
<path d="M0 0 C1.67542976 0.28604898 3.34385343 0.61781233 5 1 C5.04254356 2.99954746 5.04080783 5.00041636 5 7 C4 8 4 8 1.4375 8.0625 C0.633125 8.041875 -0.17125 8.02125 -1 8 C-1.04241723 5.66705225 -1.04092937 3.33297433 -1 1 C-0.67 0.67 -0.34 0.34 0 0 Z " fill="#D8DDD7" transform="translate(372,80)"/>
<path d="M0 0 C2.375 -0.125 2.375 -0.125 5 0 C7 2 7 2 7.3125 5.4375 C7 9 7 9 5.875 10.9375 C3.214973 12.44484863 0.99793795 12.19986253 -2 12 C0 10 0 10 3 9 C3.25015873 5.58357241 3.25015873 5.58357241 3 2 C2.01 1.34 1.02 0.68 0 0 Z " fill="#373838" transform="translate(266,29)"/>
<path d="M0 0 C1.67542976 0.28604898 3.34385343 0.61781233 5 1 C5 2.98 5 4.96 5 7 C3.34385343 7.38218767 1.67542976 7.71395102 0 8 C-1 7 -1 7 -1.125 4 C-1 1 -1 1 0 0 Z " fill="#EEEEEE" transform="translate(279,31)"/>
<path d="M0 0 C2.64 0 5.28 0 8 0 C7.33501617 4.38889325 5.81242323 7.9811485 4 12 C3.01 11.67 2.02 11.34 1 11 C2.32 8.03 3.64 5.06 5 2 C3.35 2 1.7 2 0 2 C0 1.34 0 0.68 0 0 Z " fill="#1A1A1A" transform="translate(579,78)"/>
<path d="M0 0 C0.66 0.33 1.32 0.66 2 1 C2.12375 1.969375 2.2475 2.93875 2.375 3.9375 C2.6491645 7.11582828 2.6491645 7.11582828 5.0625 8.375 C5.701875 8.58125 6.34125 8.7875 7 9 C5.4221875 9.2165625 5.4221875 9.2165625 3.8125 9.4375 C0.84539451 9.87526966 -2.06794366 10.37804866 -5 11 C-5.66 10.01 -6.32 9.02 -7 8 C-5.02 7.67 -3.04 7.34 -1 7 C-0.67 4.69 -0.34 2.38 0 0 Z " fill="#9EC39D" transform="translate(730,39)"/>
<path d="M0 0 C3.3 0 6.6 0 10 0 C10 0.66 10 1.32 10 2 C8.68 2 7.36 2 6 2 C6 5.3 6 8.6 6 12 C5.34 12 4.68 12 4 12 C4 8.7 4 5.4 4 2 C2.68 2 1.36 2 0 2 C0 1.34 0 0.68 0 0 Z " fill="#151615" transform="translate(465,78)"/>
<path d="M0 0 C3.3 0 6.6 0 10 0 C10 0.66 10 1.32 10 2 C8.68 2 7.36 2 6 2 C6 5.3 6 8.6 6 12 C5.34 12 4.68 12 4 12 C4 8.7 4 5.4 4 2 C2.68 2 1.36 2 0 2 C0 1.34 0 0.68 0 0 Z " fill="#171717" transform="translate(353,78)"/>
<path d="M0 0 C3.3 0 6.6 0 10 0 C10 0.66 10 1.32 10 2 C8.68 2 7.36 2 6 2 C6 5.3 6 8.6 6 12 C5.34 12 4.68 12 4 12 C4 8.7 4 5.4 4 2 C2.68 2 1.36 2 0 2 C0 1.34 0 0.68 0 0 Z " fill="#121212" transform="translate(273,78)"/>
<path d="M0 0 C0.66 0 1.32 0 2 0 C2.33 1.65 2.66 3.3 3 5 C-1.48074195 8.36055646 -4.60550707 8.27429625 -10 8 C-9.34 7.67 -8.68 7.34 -8 7 C-8 6.34 -8 5.68 -8 5 C-5.36 4.01 -2.72 3.02 0 2 C0 1.34 0 0.68 0 0 Z " fill="#499C68" transform="translate(487,43)"/>
<path d="M0 0 C1.65 0.33 3.3 0.66 5 1 C4.49701212 5.40114397 2.91227269 7.71195019 0 11 C-1.49297212 8.01405576 -1.11755228 5.29146376 -1 2 C-0.67 1.34 -0.34 0.68 0 0 Z " fill="#C9CDC8" transform="translate(523,79)"/>
<path d="M0 0 C1.32 0.33 2.64 0.66 4 1 C5.25 3.5625 5.25 3.5625 6 6 C5.01 6 4.02 6 3 6 C2.67 7.98 2.34 9.96 2 12 C1.34 12 0.68 12 0 12 C0 8.04 0 4.08 0 0 Z " fill="#1B1B1B" transform="translate(454,78)"/>
<path d="M0 0 C2.31 0 4.62 0 7 0 C7 0.66 7 1.32 7 2 C5.35 2 3.7 2 2 2 C2 3.32 2 4.64 2 6 C3.32 6.33 4.64 6.66 6 7 C4.68 7 3.36 7 2 7 C2 8.65 2 10.3 2 12 C1.34 12 0.68 12 0 12 C0 8.04 0 4.08 0 0 Z " fill="#101010" transform="translate(382,78)"/>
<path d="M0 0 C2.97 0 5.94 0 9 0 C9 0.66 9 1.32 9 2 C7.68 2 6.36 2 5 2 C5 5.3 5 8.6 5 12 C4.34 12 3.68 12 3 12 C3 8.7 3 5.4 3 2 C2.01 2 1.02 2 0 2 C0 1.34 0 0.68 0 0 Z " fill="#111111" transform="translate(295,78)"/>
<path d="M0 0 C1.65 0 3.3 0 5 0 C5 2.31 5 4.62 5 7 C3.0625 7.5625 3.0625 7.5625 1 8 C0 7 0 7 -0.0625 3.4375 C-0.041875 2.303125 -0.02125 1.16875 0 0 Z " fill="#F7F7F7" transform="translate(265,31)"/>
<path d="M0 0 C1.65 0.33 3.3 0.66 5 1 C4.67 3.31 4.34 5.62 4 8 C2.68 8 1.36 8 0 8 C-1.125 2.25 -1.125 2.25 0 0 Z " fill="#515151" transform="translate(145,29)"/>
<path d="M0 0 C0.99 0 1.98 0 3 0 C3 3.96 3 7.92 3 12 C2.34 12 1.68 12 1 12 C0.67 10.02 0.34 8.04 0 6 C-0.99 6.495 -0.99 6.495 -2 7 C-1.125 1.125 -1.125 1.125 0 0 Z " fill="#171717" transform="translate(326,78)"/>
<path d="M0 0 C0 0.99 0 1.98 0 3 C-7.16329135 7.86483369 -12.10975022 9.68295867 -20.76171875 8.4296875 C-21.50035156 8.28789063 -22.23898437 8.14609375 -23 8 C-23 7.67 -23 7.34 -23 7 C-22.2265625 6.97421875 -21.453125 6.9484375 -20.65625 6.921875 C-12.23018686 6.46302998 -6.92851635 4.6190109 0 0 Z " fill="#94C2A7" transform="translate(498,51)"/>
<path d="M0 0 C0.66 0 1.32 0 2 0 C2.33 4.29 2.66 8.58 3 13 C2.01 12.67 1.02 12.34 0 12 C-1.1898306 9.6203388 -1.13349966 8.08514265 -1.125 5.4375 C-1.12886719 4.22900391 -1.12886719 4.22900391 -1.1328125 2.99609375 C-1 1 -1 1 0 0 Z " fill="#383838" transform="translate(48,28)"/>
<path d="M0 0 C3.0625 0.1875 3.0625 0.1875 5.0625 2.1875 C5.33241906 4.87589385 5.14987357 7.47891936 5.0625 10.1875 C4.0725 9.8575 3.0825 9.5275 2.0625 9.1875 C2.0625 7.2075 2.0625 5.2275 2.0625 3.1875 C0.0825 3.5175 -1.8975 3.8475 -3.9375 4.1875 C-3.9375 0.25132979 -3.9375 0.25132979 0 0 Z " fill="#111211" transform="translate(432.9375,77.8125)"/>
<path d="M0 0 C0.5775 0.515625 1.155 1.03125 1.75 1.5625 C1.42 3.8725 1.09 6.1825 0.75 8.5625 C-0.24 8.5625 -1.23 8.5625 -2.25 8.5625 C-2.353125 7.77875 -2.45625 6.995 -2.5625 6.1875 C-3.02595022 3.23204819 -3.02595022 3.23204819 -6.25 1.5625 C-6.25 0.9025 -6.25 0.2425 -6.25 -0.4375 C-3.39943397 -1.55736523 -2.65876672 -1.69865651 0 0 Z " fill="#CDD1CC" transform="translate(273.25,80.4375)"/>
<path d="M0 0 C0.66 0 1.32 0 2 0 C1.88541307 1.43836751 1.75790884 2.87570966 1.625 4.3125 C1.55539063 5.11300781 1.48578125 5.91351563 1.4140625 6.73828125 C1 9 1 9 -1 12 C-1.99 12 -2.98 12 -4 12 C-4 10.02 -4 8.04 -4 6 C-3.67 6.66 -3.34 7.32 -3 8 C-2.34 8 -1.68 8 -1 8 C-0.67 5.36 -0.34 2.72 0 0 Z " fill="#141414" transform="translate(98,29)"/>
<path d="M0 0 C0.99 0 1.98 0 3 0 C3 3.96 3 7.92 3 12 C2.01 12 1.02 12 0 12 C0 8.04 0 4.08 0 0 Z " fill="#313131" transform="translate(210,29)"/>
<path d="M0 0 C0.66 0 1.32 0 2 0 C5 3.46153846 5 3.46153846 5 6 C5.66 6 6.32 6 7 6 C7.33 6.99 7.66 7.98 8 9 C8.99 9.66 9.98 10.32 11 11 C11 11.66 11 12.32 11 13 C9.68 12.67 8.36 12.34 7 12 C6.67 10.68 6.34 9.36 6 8 C4.68 8.33 3.36 8.66 2 9 C2.33 7.35 2.66 5.7 3 4 C2.01 3.67 1.02 3.34 0 3 C0 2.01 0 1.02 0 0 Z " fill="#ABC8BB" transform="translate(491,18)"/>
<path d="M0 0 C2.5625 0.1875 2.5625 0.1875 4.5625 2.1875 C4.6875 5.8125 4.6875 5.8125 4.5625 9.1875 C3.9025 9.1875 3.2425 9.1875 2.5625 9.1875 C2.2325 7.2075 1.9025 5.2275 1.5625 3.1875 C0.5725 2.8575 -0.4175 2.5275 -1.4375 2.1875 C-1.4375 4.4975 -1.4375 6.8075 -1.4375 9.1875 C-1.7675 9.1875 -2.0975 9.1875 -2.4375 9.1875 C-3.31640625 3.03515625 -3.31640625 3.03515625 -3.4375 1.1875 C-2.4375 0.1875 -2.4375 0.1875 0 0 Z " fill="#242424" transform="translate(517.4375,77.8125)"/>
<path d="M0 0 C0.33 0 0.66 0 1 0 C1 1.98 1 3.96 1 6 C1.99 5.67 2.98 5.34 4 5 C4 5.99 4 6.98 4 8 C3.01 8.495 3.01 8.495 2 9 C0.95191959 10.97522846 -0.0520411 12.97481509 -1 15 C-1.66 15 -2.32 15 -3 15 C-2.125 8.125 -2.125 8.125 -1 7 C-0.63239269 4.67182036 -0.29758419 2.3381615 0 0 Z " fill="#EBF7EF" transform="translate(497,32)"/>
<path d="M0 0 C0.33 0 0.66 0 1 0 C1 1.98 1 3.96 1 6 C4.3 6 7.6 6 11 6 C10.67 6.99 10.34 7.98 10 9 C3.62573591 10.32296047 3.62573591 10.32296047 1.0625 9 C-0.52633023 6.00926074 -0.18792343 3.31998061 0 0 Z " fill="#313231" transform="translate(368,81)"/>
<path d="M0 0 C1.65 0 3.3 0 5 0 C5.625 2.3125 5.625 2.3125 6 5 C5.01 6.485 5.01 6.485 4 8 C3.34 7.67 2.68 7.34 2 7 C2.020625 6.195625 2.04125 5.39125 2.0625 4.5625 C2.29633621 2.06645115 2.29633621 2.06645115 1 1 C1 3.97 1 6.94 1 10 C0.67 10 0.34 10 0 10 C0 6.7 0 3.4 0 0 Z " fill="#D1D6D0" transform="translate(279,80)"/>
<path d="M0 0 C0.66 0 1.32 0 2 0 C2 3.3 2 6.6 2 10 C3.65 10 5.3 10 7 10 C7 10.66 7 11.32 7 12 C4.69 12 2.38 12 0 12 C0 8.04 0 4.08 0 0 Z " fill="#141414" transform="translate(289,29)"/>
<path d="M0 0 C1.32 0 2.64 0 4 0 C5.31626692 3.61973402 6 6.09567131 6 10 C5.34 10 4.68 10 4 10 C3.71125 9.360625 3.4225 8.72125 3.125 8.0625 C2.17176549 5.84793921 2.17176549 5.84793921 0 5 C0 3.35 0 1.7 0 0 Z " fill="#555555" transform="translate(134,31)"/>
<path d="M0 0 C4.90776381 4.74944885 4.90776381 4.74944885 5.16796875 8.27734375 C5.17441406 9.15519531 5.18085938 10.03304687 5.1875 10.9375 C5.20167969 11.81277344 5.21585937 12.68804687 5.23046875 13.58984375 C5 16 5 16 3 19 C3 16.36 3 13.72 3 11 C2.67 11 2.34 11 2 11 C2 9.02 2 7.04 2 5 C0.68 4.67 -0.64 4.34 -2 4 C-1.01 4 -0.02 4 1 4 C0.67 2.68 0.34 1.36 0 0 Z " fill="#2E8B54" transform="translate(491,24)"/>
<path d="M0 0 C0.99 0 1.98 0 3 0 C2.58682778 4.82034262 0.61980085 6.90992611 -3 10 C-3.66 10 -4.32 10 -5 10 C-4.67 8.68 -4.34 7.36 -4 6 C-3.34 6 -2.68 6 -2 6 C-1.34 4.02 -0.68 2.04 0 0 Z " fill="#A1C4B0" transform="translate(498,41)"/>
<path d="M0 0 C1.22589844 0.15275391 1.22589844 0.15275391 2.4765625 0.30859375 C3.41628906 0.43427734 3.41628906 0.43427734 4.375 0.5625 C4.705 1.5525 5.035 2.5425 5.375 3.5625 C2.075 3.5625 -1.225 3.5625 -4.625 3.5625 C-4.625 2.9025 -4.625 2.2425 -4.625 1.5625 C-5.285 1.2325 -5.945 0.9025 -6.625 0.5625 C-4.10446405 -0.69776798 -2.7707902 -0.35624445 0 0 Z " fill="#5EA877" transform="translate(478.625,34.4375)"/>
<path d="M0 0 C0.66 0 1.32 0 2 0 C2 3.3 2 6.6 2 10 C3.32 10 4.64 10 6 10 C6 10.66 6 11.32 6 12 C4.02 12 2.04 12 0 12 C0 8.04 0 4.08 0 0 Z " fill="#0D0D0D" transform="translate(18,29)"/>
<path d="M0 0 C2 2 2 2 2.25 5.5 C2 9 2 9 0 11 C-0.33 10.01 -0.66 9.02 -1 8 C-0.34 8 0.32 8 1 8 C1 6.35 1 4.7 1 3 C-0.65 3 -2.3 3 -4 3 C-4.33 4.65 -4.66 6.3 -5 8 C-5.33 8 -5.66 8 -6 8 C-6 6.02 -6 4.04 -6 2 C-4.02 1.34 -2.04 0.68 0 0 Z " fill="#C4C9C4" transform="translate(415,79)"/>
<path d="M0 0 C0.66 0 1.32 0 2 0 C2 3.96 2 7.92 2 12 C0.68 12 -0.64 12 -2 12 C-2 11.01 -2 10.02 -2 9 C-1.34 9 -0.68 9 0 9 C0 6.03 0 3.06 0 0 Z " fill="#252525" transform="translate(350,78)"/>
<path d="M0 0 C0.66 0.66 1.32 1.32 2 2 C2.66 1.67 3.32 1.34 4 1 C4.93423645 4.01031744 5.04449911 4.86650268 4 8 C2.68 8 1.36 8 0 8 C-0.79953138 4.71303767 -1.09658936 3.28976808 0 0 Z " fill="#2F302F" transform="translate(320,82)"/>
<path d="M0 0 C1.98 0.495 1.98 0.495 4 1 C4 2.65 4 4.3 4 6 C2.35 6.33 0.7 6.66 -1 7 C-0.67 4.69 -0.34 2.38 0 0 Z " fill="#86B782" transform="translate(717,38)"/>
<path d="M0 0 C2.0625 0.4375 2.0625 0.4375 4 1 C3.67 3.31 3.34 5.62 3 8 C2.01 8 1.02 8 0 8 C-0.38063221 5.6739143 -0.71269945 3.33944736 -1 1 C-0.67 0.67 -0.34 0.34 0 0 Z " fill="#656666" transform="translate(9,28)"/>
<path d="M0 0 C0.33 0 0.66 0 1 0 C1.66 1.98 2.32 3.96 3 6 C4.98 5.67 6.96 5.34 9 5 C8.67 6.32 8.34 7.64 8 9 C5.66705225 9.04241723 3.33297433 9.04092937 1 9 C0 8 0 8 -0.09765625 6.15234375 C-0.06510417 4.1015625 -0.03255208 2.05078125 0 0 Z " fill="#191919" transform="translate(276,32)"/>
<path d="M0 0 C1.32 0.33 2.64 0.66 4 1 C4.33 2.65 4.66 4.3 5 6 C2.69 6.66 0.38 7.32 -2 8 C-1.34 5.36 -0.68 2.72 0 0 Z " fill="#676868" transform="translate(183,31)"/>
<path d="M0 0 C0.66 0 1.32 0 2 0 C2 1.65 2 3.3 2 5 C3.65 5 5.3 5 7 5 C7 5.33 7 5.66 7 6 C5.35 6 3.7 6 2 6 C2 7.98 2 9.96 2 12 C1.34 12 0.68 12 0 12 C0 8.04 0 4.08 0 0 Z " fill="#070807" transform="translate(250,29)"/>
<path d="M0 0 C2.00720923 0.28674418 4.0085944 0.61866701 6 1 C6 1.66 6 2.32 6 3 C4.35 3.33 2.7 3.66 1 4 C0.67 5.65 0.34 7.3 0 9 C-0.99 7.68 -1.98 6.36 -3 5 C-1.125 1.125 -1.125 1.125 0 0 Z " fill="#434443" transform="translate(242,28)"/>
<path d="M0 0 C3.3 0 6.6 0 10 0 C9.67 0.99 9.34 1.98 9 3 C6.36 3.33 3.72 3.66 1 4 C0.67 2.68 0.34 1.36 0 0 Z " fill="#E7F3ED" transform="translate(477,13)"/>
<path d="M0 0 C0.78375 0.04125 1.5675 0.0825 2.375 0.125 C2.375 1.115 2.375 2.105 2.375 3.125 C1.055 3.125 -0.265 3.125 -1.625 3.125 C-1.955 5.105 -2.285 7.085 -2.625 9.125 C-3.285 9.125 -3.945 9.125 -4.625 9.125 C-4.75 5.75 -4.75 5.75 -4.625 2.125 C-2.625 0.125 -2.625 0.125 0 0 Z " fill="#151515" transform="translate(411.625,77.875)"/>
<path d="M0 0 C0.99 0.33 1.98 0.66 3 1 C3 3.97 3 6.94 3 10 C1.35 10.33 -0.3 10.66 -2 11 C-1.01 10.67 -0.02 10.34 1 10 C0.67 6.7 0.34 3.4 0 0 Z " fill="#9CC49A" transform="translate(820,32)"/>
<path d="M0 0 C0.99 0 1.98 0 3 0 C3.66 3.3 4.32 6.6 5 10 C4.01 10 3.02 10 2 10 C0.68373308 6.38026598 0 3.90432869 0 0 Z " fill="#2F2F2F" transform="translate(84,29)"/>
<path d="M0 0 C1.32 0 2.64 0 4 0 C4 3.96 4 7.92 4 12 C3.34 12 2.68 12 2 12 C2 8.7 2 5.4 2 2 C1.34 2 0.68 2 0 2 C0 1.34 0 0.68 0 0 Z " fill="#222222" transform="translate(41,29)"/>
<path d="M0 0 C1.32 0 2.64 0 4 0 C4 0.66 4 1.32 4 2 C3.34 2 2.68 2 2 2 C2 5.3 2 8.6 2 12 C1.34 12 0.68 12 0 12 C0 8.04 0 4.08 0 0 Z " fill="#2B2C2B" transform="translate(193,29)"/>
<path d="M0 0 C0.625 3.375 0.625 3.375 1 7 C0.34 7.66 -0.32 8.32 -1 9 C-1.268125 7.88625 -1.53625 6.7725 -1.8125 5.625 C-2.65809019 1.78159049 -2.65809019 1.78159049 -6 0 C-3 -1 -3 -1 0 0 Z " fill="#333333" transform="translate(286,30)"/>
<path d="M0 0 C1.32 1.32 2.64 2.64 4 4 C3.34 4 2.68 4 2 4 C1.896875 4.78375 1.79375 5.5675 1.6875 6.375 C1 9 1 9 -2 11 C-2.25 3.375 -2.25 3.375 0 0 Z " fill="#3D9762" transform="translate(472,25)"/>
<path d="M0 0 C0.33 0.99 0.66 1.98 1 3 C-2.90028225 5.60018816 -6.47434569 5.15085514 -11 5 C-11 4.34 -11 3.68 -11 3 C-8.03 3.495 -8.03 3.495 -5 4 C-5 3.34 -5 2.68 -5 2 C-3.35 1.34 -1.7 0.68 0 0 Z " fill="#99C1A8" transform="translate(490,51)"/>
<path d="M0 0 C0.99 0 1.98 0 3 0 C3 3.96 3 7.92 3 12 C2.34 12 1.68 12 1 12 C0.67 8.04 0.34 4.08 0 0 Z " fill="#282828" transform="translate(205,29)"/>
<path d="M0 0 C0.33 0.99 0.66 1.98 1 3 C1.66 3.33 2.32 3.66 3 4 C2 5 2 5 -0.50390625 5.09765625 C-2.01791016 5.08025391 -2.01791016 5.08025391 -3.5625 5.0625 C-4.57441406 5.05347656 -5.58632813 5.04445313 -6.62890625 5.03515625 C-7.41136719 5.02355469 -8.19382812 5.01195312 -9 5 C-8.67 4.34 -8.34 3.68 -8 3 C-5.66666667 2.66666667 -3.33333333 2.33333333 -1 2 C-0.67 1.34 -0.34 0.68 0 0 Z " fill="#ABC8B8" transform="translate(487,13)"/>
<path d="M0 0 C1.65 0 3.3 0 5 0 C5 1.98 5 3.96 5 6 C2.36 6 -0.28 6 -3 6 C-3 5.67 -3 5.34 -3 5 C-0.69 5 1.62 5 4 5 C4 4.34 4 3.68 4 3 C2.68 3 1.36 3 0 3 C0 2.01 0 1.02 0 0 Z " fill="#C2C6C1" transform="translate(335,85)"/>
<path d="M0 0 C2.31 0.33 4.62 0.66 7 1 C7 2.32 7 3.64 7 5 C6.01 5 5.02 5 4 5 C3.67 4.34 3.34 3.68 3 3 C1.68 3 0.36 3 -1 3 C-0.67 2.01 -0.34 1.02 0 0 Z " fill="#232423" transform="translate(505,78)"/>
<path d="M0 0 C3.63 0 7.26 0 11 0 C10.01 0.33 9.02 0.66 8 1 C8 1.99 8 2.98 8 4 C6.35 4.33 4.7 4.66 3 5 C3 4.01 3 3.02 3 2 C2.01 1.34 1.02 0.68 0 0 Z " fill="#B1D1B1" transform="translate(653,45)"/>
<path d="M0 0 C0.66 0 1.32 0 2 0 C2.99 2.97 3.98 5.94 5 9 C3.68 9 2.36 9 1 9 C0.67 6.03 0.34 3.06 0 0 Z " fill="#393939" transform="translate(102,29)"/>
<path d="M0 0 C1.32 0 2.64 0 4 0 C4 1.98 4 3.96 4 6 C2.35 5.67 0.7 5.34 -1 5 C-0.67 3.35 -0.34 1.7 0 0 Z " fill="#808280" transform="translate(535,85)"/>
<path d="M0 0 C0.99 0 1.98 0 3 0 C3 2.64 3 5.28 3 8 C2.01 8 1.02 8 0 8 C0 5.36 0 2.72 0 0 Z " fill="#DADFD9" transform="translate(516,80)"/>
<path d="M0 0 C0.99 0.33 1.98 0.66 3 1 C2.34 2.65 1.68 4.3 1 6 C0.01 6 -0.98 6 -2 6 C-2 4.33333333 -2 2.66666667 -2 1 C-1.34 0.67 -0.68 0.34 0 0 Z " fill="#D7DCD6" transform="translate(571,80)"/>
<path d="M0 0 C0.99 0 1.98 0 3 0 C3 2.64 3 5.28 3 8 C2.01 8 1.02 8 0 8 C0 5.36 0 2.72 0 0 Z " fill="#DCE1DB" transform="translate(562,80)"/>
<path d="M0 0 C0.78375 0.04125 1.5675 0.0825 2.375 0.125 C1.75625 0.475625 1.1375 0.82625 0.5 1.1875 C-2.38054253 3.81387702 -2.77962838 6.39127537 -3.625 10.125 C-3.955 10.125 -4.285 10.125 -4.625 10.125 C-4.8203125 4.0703125 -4.8203125 4.0703125 -4.625 2.125 C-2.625 0.125 -2.625 0.125 0 0 Z " fill="#191919" transform="translate(563.625,77.875)"/>
<path d="M0 0 C-0.33 0.99 -0.66 1.98 -1 3 C-4.42232972 4.14077657 -7.08673217 4.09815117 -10.6875 4.0625 C-12.45673828 4.04896484 -12.45673828 4.04896484 -14.26171875 4.03515625 C-15.16535156 4.02355469 -16.06898438 4.01195312 -17 4 C-17 3.67 -17 3.34 -17 3 C-16.25234375 2.95101562 -15.5046875 2.90203125 -14.734375 2.8515625 C-13.74953125 2.77679688 -12.7646875 2.70203125 -11.75 2.625 C-10.28820312 2.52058594 -10.28820312 2.52058594 -8.796875 2.4140625 C-5.60512397 1.9415407 -3.13732834 0 0 0 Z " fill="#EAF8EE" transform="translate(491,54)"/>
<path d="M0 0 C0.66 0.33 1.32 0.66 2 1 C2.125 4.375 2.125 4.375 2 8 C0 10 0 10 -2.625 10.125 C-3.40875 10.08375 -4.1925 10.0425 -5 10 C-4.360625 9.649375 -3.72125 9.29875 -3.0625 8.9375 C-0.17836168 6.22815794 -0.2899178 3.84141089 0 0 Z " fill="#8EB98A" transform="translate(800,39)"/>
<path d="M0 0 C0.66 0 1.32 0 2 0 C2.66 2.97 3.32 5.94 4 9 C3.01 8.67 2.02 8.34 1 8 C1 7.34 1 6.68 1 6 C0.34 5.67 -0.32 5.34 -1 5 C-0.67 3.35 -0.34 1.7 0 0 Z " fill="#212121" transform="translate(12,32)"/>
<path d="M0 0 C1.32 0 2.64 0 4 0 C4 1.98 4 3.96 4 6 C2.35 5.67 0.7 5.34 -1 5 C-0.67 3.35 -0.34 1.7 0 0 Z " fill="#ADD4BC" transform="translate(489,29)"/>
<path d="M0 0 C1.67542976 0.28604898 3.34385343 0.61781233 5 1 C5 1.66 5 2.32 5 3 C3.68 3 2.36 3 1 3 C1 3.66 1 4.32 1 5 C0.01 5.33 -0.98 5.66 -2 6 C-1.125 1.125 -1.125 1.125 0 0 Z " fill="#3C3D3D" transform="translate(232,28)"/>
<path d="M0 0 C1.670625 0.061875 1.670625 0.061875 3.375 0.125 C3.375 0.785 3.375 1.445 3.375 2.125 C1.065 2.455 -1.245 2.785 -3.625 3.125 C-3.955 5.105 -4.285 7.085 -4.625 9.125 C-4.955 9.125 -5.285 9.125 -5.625 9.125 C-5.75 5.75 -5.75 5.75 -5.625 2.125 C-3.625 0.125 -3.625 0.125 0 0 Z " fill="#323232" transform="translate(220.625,28.875)"/>
<path d="M0 0 C4.29 0.33 8.58 0.66 13 1 C13 1.33 13 1.66 13 2 C10.69 2 8.38 2 6 2 C6.33 3.32 6.66 4.64 7 6 C6.01 6 5.02 6 4 6 C4 4.68 4 3.36 4 2 C2.68 1.34 1.36 0.68 0 0 Z " fill="#B4D5C1" transform="translate(471,11)"/>
<path d="M0 0 C1.5 1.3125 1.5 1.3125 3 3 C3 3.99 3 4.98 3 6 C-0.63 6 -4.26 6 -8 6 C-8 5.67 -8 5.34 -8 5 C-5.36 5 -2.72 5 0 5 C0 4.34 0 3.68 0 3 C-0.66 2.67 -1.32 2.34 -2 2 C-1.34 2 -0.68 2 0 2 C0 1.34 0 0.68 0 0 Z " fill="#B9BDB8" transform="translate(557,85)"/>
<path d="M0 0 C0.33 0.66 0.66 1.32 1 2 C1.66 2 2.32 2 3 2 C3.33 3.65 3.66 5.3 4 7 C2.35 6.67 0.7 6.34 -1 6 C-0.67 4.02 -0.34 2.04 0 0 Z " fill="#686A68" transform="translate(286,79)"/>
<path d="M0 0 C0.66 1.32 1.32 2.64 2 4 C1.01 4 0.02 4 -1 4 C-1 4.66 -1 5.32 -1 6 C-2.32 5.67 -3.64 5.34 -5 5 C-5 4.01 -5 3.02 -5 2 C-3.35 1.34 -1.7 0.68 0 0 Z " fill="#CCD0CB" transform="translate(488,78)"/>
<path d="M0 0 C0.33 0 0.66 0 1 0 C1 1.98 1 3.96 1 6 C-0.65 6.33 -2.3 6.66 -4 7 C-3.6875 5.0625 -3.6875 5.0625 -3 3 C-2.01 2.67 -1.02 2.34 0 2 C0 1.34 0 0.68 0 0 Z " fill="#83B681" transform="translate(651,35)"/>
<path d="M0 0 C0.99 0.33 1.98 0.66 3 1 C3 2.65 3 4.3 3 6 C3.99 6.33 4.98 6.66 6 7 C3.36 7 0.72 7 -2 7 C-2.33 7.66 -2.66 8.32 -3 9 C-3 8.01 -3 7.02 -3 6 C-1.35 6 0.3 6 2 6 C1.34 5.01 0.68 4.02 0 3 C0 2.01 0 1.02 0 0 Z " fill="#8DBB8B" transform="translate(806,36)"/>
<path d="M0 0 C0.33 0.66 0.66 1.32 1 2 C1.66 2.33 2.32 2.66 3 3 C1 5 1 5 -1.625 5.125 C-2.40875 5.08375 -3.1925 5.0425 -4 5 C-4.33 4.01 -4.66 3.02 -5 2 C-3.35 2 -1.7 2 0 2 C0 1.34 0 0.68 0 0 Z " fill="#464746" transform="translate(269,86)"/>
<path d="M0 0 C2 0.66666667 4 1.33333333 6 2 C6 2.66 6 3.32 6 4 C3.36 4 0.72 4 -2 4 C-1.34 2.68 -0.68 1.36 0 0 Z " fill="#232423" transform="translate(551,86)"/>
<path d="M0 0 C0.33 0.66 0.66 1.32 1 2 C1.66 2 2.32 2 3 2 C3.33 3.65 3.66 5.3 4 7 C2.68 7 1.36 7 0 7 C-0.93423645 3.98968256 -1.04449911 3.13349732 0 0 Z " fill="#6D706E" transform="translate(397,79)"/>
<path d="M0 0 C3.63 0.66 7.26 1.32 11 2 C11 2.66 11 3.32 11 4 C6.35108046 4.32434322 3.77593392 3.776422 0 1 C0 0.67 0 0.34 0 0 Z " fill="#8CBC9C" transform="translate(467,52)"/>
<path d="M0 0 C3.42298577 1.14099526 4.14758766 2.00085621 6 5 C6 5.99 6 6.98 6 8 C4.125 7.375 4.125 7.375 2 6 C0.75 2.875 0.75 2.875 0 0 Z " fill="#EDF8EF" transform="translate(461,41)"/>
<path d="M0 0 C0.33 0 0.66 0 1 0 C1 1.65 1 3.3 1 5 C-1.64 5 -4.28 5 -7 5 C-7 4.34 -7 3.68 -7 3 C-3.535 2.505 -3.535 2.505 0 2 C0 1.34 0 0.68 0 0 Z " fill="#73AD6C" transform="translate(693,40)"/>
<path d="M0 0 C2.56687367 3.8503105 1.83288724 5.58569763 1 10 C-0.32 8.68 -1.64 7.36 -3 6 C-2.34 6 -1.68 6 -1 6 C-0.67 4.02 -0.34 2.04 0 0 Z " fill="#D9EDE1" transform="translate(502,34)"/>
<path d="M0 0 C3.36720387 1.39332574 4.9859524 2.9789286 7 6 C6.67 6.66 6.34 7.32 6 8 C1.3125 4.38671875 1.3125 4.38671875 0 3 C0 2.01 0 1.02 0 0 Z " fill="#7FB57B" transform="translate(695,34)"/>
<path d="M0 0 C2.375 -0.125 2.375 -0.125 5 0 C7 2 7 2 7.125 5.625 C7.08375 6.73875 7.0425 7.8525 7 9 C6.34 8.67 5.68 8.34 5 8 C4.690625 7.030625 4.38125 6.06125 4.0625 5.0625 C3.25255878 1.7319557 3.25255878 1.7319557 0 0 Z " fill="#0E0E0E" transform="translate(266,29)"/>
<path d="M0 0 C2.475 0.495 2.475 0.495 5 1 C4.67 2.65 4.34 4.3 4 6 C2.68 6.33 1.36 6.66 0 7 C0.66 6.67 1.32 6.34 2 6 C2 4.35 2 2.7 2 1 C1.34 0.67 0.68 0.34 0 0 Z " fill="#1F1F1F" transform="translate(537,83)"/>
<path d="M0 0 C1.66611905 -0.042721 3.33382885 -0.04063832 5 0 C6 1 6 1 6.0625 3.5625 C6.041875 4.366875 6.02125 5.17125 6 6 C5.5875 5.505 5.175 5.01 4.75 4.5 C2.87797662 2.56613908 2.87797662 2.56613908 -1 3 C-0.67 2.01 -0.34 1.02 0 0 Z " fill="#121212" transform="translate(525,78)"/>
<path d="M0 0 C0.33 0.99 0.66 1.98 1 3 C-4.625 7.875 -4.625 7.875 -8 9 C-8.33 8.34 -8.66 7.68 -9 7 C-7.2421875 6.05598958 -5.484375 5.11197917 -3.7265625 4.16796875 C-1.69497635 2.95236507 -1.69497635 2.95236507 0 0 Z " fill="#E3F3EA" transform="translate(500,50)"/>
<path d="M0 0 C2.475 0.495 2.475 0.495 5 1 C5 2.98 5 4.96 5 7 C4.34 5.68 3.68 4.36 3 3 C2.01 3.33 1.02 3.66 0 4 C0 2.68 0 1.36 0 0 Z " fill="#171717" transform="translate(184,29)"/>
<path d="M0 0 C0.66 0.33 1.32 0.66 2 1 C1.67 2.65 1.34 4.3 1 6 C1.66 6 2.32 6 3 6 C2.25 7.9375 2.25 7.9375 1 10 C-1.125 10.75 -1.125 10.75 -3 11 C-2.34 10.34 -1.68 9.68 -1 9 C-0.53993654 6.79749008 -0.53993654 6.79749008 -0.375 4.375 C-0.30023438 3.55773437 -0.22546875 2.74046875 -0.1484375 1.8984375 C-0.09945313 1.27195312 -0.05046875 0.64546875 0 0 Z " fill="#EDF3EC" transform="translate(280,81)"/>
<path d="M0 0 C0.33 0 0.66 0 1 0 C1 1.98 1 3.96 1 6 C1.66 6.33 2.32 6.66 3 7 C2.01 8.485 2.01 8.485 1 10 C-0.32 9.67 -1.64 9.34 -3 9 C-2.67 8.34 -2.34 7.68 -2 7 C-1.34 7 -0.68 7 0 7 C0 4.69 0 2.38 0 0 Z " fill="#565857" transform="translate(519,81)"/>
<path d="M0 0 C0.33 0 0.66 0 1 0 C1 1.65 1 3.3 1 5 C3.31 5 5.62 5 8 5 C8 5.33 8 5.66 8 6 C-0.42857143 7.28571429 -0.42857143 7.28571429 -5 6 C-4.360625 5.7525 -3.72125 5.505 -3.0625 5.25 C-0.81258459 4.18437567 -0.81258459 4.18437567 -0.25 1.875 C-0.1675 1.25625 -0.085 0.6375 0 0 Z " fill="#9FC89E" transform="translate(652,37)"/>
<path d="M0 0 C0.99 0 1.98 0 3 0 C5 2 5 2 5 5 C3.35 5 1.7 5 0 5 C0 3.35 0 1.7 0 0 Z " fill="#757575" transform="translate(74,32)"/>
<path d="M0 0 C0 2.31 0 4.62 0 7 C-1.7074998 5.71937515 -3.37373596 4.38232443 -5 3 C-5 2.34 -5 1.68 -5 1 C-2 0 -2 0 0 0 Z " fill="#B5D1B5" transform="translate(777,30)"/>
<path d="M0 0 C0.99 0.33 1.98 0.66 3 1 C3 2.65 3 4.3 3 6 C1.35 6 -0.3 6 -2 6 C-1.34 4.02 -0.68 2.04 0 0 Z " fill="#C7E4D2" transform="translate(474,29)"/>
<path d="M0 0 C0 0.66 0 1.32 0 2 C-3.21451269 3.60725635 -6.43612536 3.05748185 -10 3 C-7.02931146 0.02931146 -4.09966187 0 0 0 Z " fill="#1F8649" transform="translate(487,48)"/>
<path d="M0 0 C0.78375 0.04125 1.5675 0.0825 2.375 0.125 C2.045 1.115 1.715 2.105 1.375 3.125 C0.055 3.125 -1.265 3.125 -2.625 3.125 C-2.625 5.105 -2.625 7.085 -2.625 9.125 C-2.955 9.125 -3.285 9.125 -3.625 9.125 C-4.25 5.75 -4.25 5.75 -4.625 2.125 C-2.625 0.125 -2.625 0.125 0 0 Z " fill="#666666" transform="translate(267.625,27.875)"/>
<path d="M0 0 C1.98 0 3.96 0 6 0 C6.33 1.65 6.66 3.3 7 5 C6.34 5 5.68 5 5 5 C5 4.01 5 3.02 5 2 C3.35 2 1.7 2 0 2 C0 1.34 0 0.68 0 0 Z " fill="#1E1E1E" transform="translate(133,29)"/>
<path d="M0 0 C0.99 0 1.98 0 3 0 C3 1.32 3 2.64 3 4 C3.99 4 4.98 4 6 4 C6 4.66 6 5.32 6 6 C4.35 6.33 2.7 6.66 1 7 C0.67 4.69 0.34 2.38 0 0 Z " fill="#F1F9F3" transform="translate(472,13)"/>
<path d="M0 0 C0.99 0.33 1.98 0.66 3 1 C2.34 3.31 1.68 5.62 1 8 C0.34 8 -0.32 8 -1 8 C-1.04241723 5.66705225 -1.04092937 3.33297433 -1 1 C-0.67 0.67 -0.34 0.34 0 0 Z " fill="#1A1A1A" transform="translate(370,79)"/>
<path d="M0 0 C0 0.99 0 1.98 0 3 C-5.2734375 6.22265625 -5.2734375 6.22265625 -7 7 C-7.66 6.67 -8.32 6.34 -9 6 C-6.03 4.02 -3.06 2.04 0 0 Z " fill="#71A688" transform="translate(498,51)"/>
<path d="M0 0 C1.24546405 2.49092811 0.7767578 3.41080733 0 6 C-1.65 6.33 -3.3 6.66 -5 7 C-3.88820837 3.66462511 -2.52588702 2.36292656 0 0 Z " fill="#DBEFE1" transform="translate(494,43)"/>
<path d="M0 0 C1.65 0 3.3 0 5 0 C4.67 1.32 4.34 2.64 4 4 C2.68 4 1.36 4 0 4 C0 2.68 0 1.36 0 0 Z " fill="#85B87F" transform="translate(698,43)"/>
<path d="M0 0 C1.98 0.66 3.96 1.32 6 2 C6 2.66 6 3.32 6 4 C3.69 4 1.38 4 -1 4 C-1.33 3.34 -1.66 2.68 -2 2 C-1.34 2 -0.68 2 0 2 C0 1.34 0 0.68 0 0 Z " fill="#6DAB64" transform="translate(754,41)"/>
<path d="M0 0 C0.99 0 1.98 0 3 0 C3 1.98 3 3.96 3 6 C1.68 5.67 0.36 5.34 -1 5 C-1 4.34 -1 3.68 -1 3 C-0.34 3 0.32 3 1 3 C0.67 2.01 0.34 1.02 0 0 Z " fill="#78B073" transform="translate(667,39)"/>
<path d="M0 0 C2.31 0 4.62 0 7 0 C7 0.99 7 1.98 7 3 C5.02 3 3.04 3 1 3 C0.67 2.01 0.34 1.02 0 0 Z " fill="#353535" transform="translate(163,38)"/>
<path d="M0 0 C2.4375 0.75 2.4375 0.75 5 2 C5.8125 4.125 5.8125 4.125 6 6 C4.02 5.01 2.04 4.02 0 3 C0 2.01 0 1.02 0 0 Z " fill="#7BB076" transform="translate(671,34)"/>
<path d="M0 0 C1.65 0 3.3 0 5 0 C3.25 3.875 3.25 3.875 1 5 C0.67 3.35 0.34 1.7 0 0 Z " fill="#E5EBE4" transform="translate(523,82)"/>
<path d="M0 0 C0.99 0.33 1.98 0.66 3 1 C3 3.31 3 5.62 3 8 C2.34 8 1.68 8 1 8 C0.67 5.36 0.34 2.72 0 0 Z " fill="#0E0E0E" transform="translate(519,79)"/>
<path d="M0 0 C0.33 0 0.66 0 1 0 C1 1.65 1 3.3 1 5 C-0.65 5 -2.3 5 -4 5 C-4 4.01 -4 3.02 -4 2 C-2.68 2 -1.36 2 0 2 C0 1.34 0 0.68 0 0 Z " fill="#D5DAD4" transform="translate(339,78)"/>
<path d="M0 0 C0.66 0 1.32 0 2 0 C2.33 0.66 2.66 1.32 3 2 C5.01669827 3.13350534 5.01669827 3.13350534 7 4 C1.58461538 5.23076923 1.58461538 5.23076923 -1.375 4.0625 C-1.91125 3.711875 -2.4475 3.36125 -3 3 C-2.01 2.34 -1.02 1.68 0 1 C0 0.67 0 0.34 0 0 Z " fill="#9BC699" transform="translate(775,39)"/>
<path d="M0 0 C0.33 0 0.66 0 1 0 C2.25 7.625 2.25 7.625 0 11 C-0.66 8.69 -1.32 6.38 -2 4 C-1.34 4 -0.68 4 0 4 C0 2.68 0 1.36 0 0 Z " fill="#383838" transform="translate(111,29)"/>
<path d="M0 0 C0.66 0 1.32 0 2 0 C1.67 2.97 1.34 5.94 1 9 C-1 6 -1 6 -0.625 2.8125 C-0.41875 1.884375 -0.2125 0.95625 0 0 Z " fill="#2D2D2D" transform="translate(98,29)"/>
<path d="M0 0 C0 0.66 0 1.32 0 2 C-1.98 2.33 -3.96 2.66 -6 3 C-6.33 2.01 -6.66 1.02 -7 0 C-4.3333581 -1.33332095 -2.83319697 -0.67102033 0 0 Z " fill="#3E3E3E" transform="translate(171,29)"/>
</svg>
